<svg width="44" height="44" viewBox="0 0 44 44" fill="none" xmlns="http://www.w3.org/2000/svg">
<path d="M39.9755 12.1734C39.486 5.95188 33.9837 1.02875 27.1826 1.02875H16.8164C10.0158 1.02875 4.51314 5.95199 4.02352 12.1734C3.1787 12.361 2.42216 12.8296 1.87821 13.5024C1.33387 14.1756 1.03428 15.0133 1.02759 15.8786L2.50546 35.1621C2.54737 35.6824 2.98249 36.0827 3.50411 36.0809H8.42735V41.9729C8.42735 42.2377 8.53256 42.4918 8.71981 42.6791C8.9075 42.8663 9.16117 42.9715 9.42599 42.9715H12.4219C12.9012 42.9822 13.3202 42.651 13.4206 42.1824L14.7286 36.0809H29.3293L30.6374 42.1824C30.7377 42.651 31.1567 42.9822 31.636 42.9715H34.6319C34.8967 42.9715 35.1509 42.8663 35.3381 42.6791C35.5254 42.4918 35.6306 42.2377 35.6306 41.9729V36.0809H40.5538C41.0759 36.0827 41.511 35.6824 41.5525 35.1621L42.9706 15.7987C42.9515 14.9454 42.6456 14.1237 42.1017 13.4661C41.5583 12.8081 40.8089 12.3529 39.9747 12.1732L39.9755 12.1734ZM16.8173 3.02603H27.1836C32.8459 3.02603 37.5097 7.0206 37.9787 12.1934C37.3403 12.349 36.7523 12.6651 36.2712 13.1123C35.5311 13.7717 35.0974 14.7078 35.0728 15.6989L33.7545 23.059L10.2562 23.0585L8.93787 15.7088C8.91513 14.7275 8.48892 13.7989 7.75958 13.1422C7.27141 12.6821 6.67267 12.3553 6.02172 12.1935C6.50098 7.02064 11.155 3.02608 16.8169 3.02608L16.8173 3.02603ZM35.5416 28.581H8.45841C7.90648 28.581 7.45976 28.1338 7.45976 27.5823V26.0643C7.45976 25.5128 7.90648 25.0656 8.45841 25.0656H35.5416C35.8064 25.0656 36.0605 25.1709 36.2477 25.3581C36.435 25.5453 36.5402 25.7995 36.5402 26.0643V27.5823C36.5402 27.8472 36.435 28.1008 36.2477 28.2885C36.0605 28.4758 35.8064 28.581 35.5416 28.581ZM11.5742 40.9744H10.4258V36.0811H12.6326L11.5742 40.9744ZM33.5443 40.9744H32.4262L31.3776 36.0811H33.5844L33.5443 40.9744ZM39.5361 34.0838H4.43416L3.02625 15.7989C3.04676 15.2943 3.27056 14.8195 3.64684 14.4824C4.02311 14.1459 4.51975 13.9755 5.02348 14.0112C5.54999 14.0001 6.05957 14.1976 6.44166 14.5605C6.78762 14.8632 6.98734 15.2992 6.99092 15.7588C6.98557 15.8186 6.98557 15.8788 6.99092 15.9385L8.26906 23.0489C7.51517 23.1069 6.81082 23.448 6.29769 24.0034C5.78454 24.5594 5.50055 25.2888 5.50279 26.0449V27.5629C5.50279 28.3574 5.81843 29.1193 6.38017 29.6814C6.94235 30.2432 7.70431 30.5588 8.49866 30.5588H35.5419C36.3368 30.5588 37.0987 30.2432 37.6604 29.6814C38.2221 29.1193 38.5377 28.3573 38.5377 27.5629V26.065C38.54 25.3084 38.2564 24.5795 37.7433 24.0235C37.2301 23.468 36.5257 23.127 35.7719 23.069L37.0398 16.0086C37.0456 15.9488 37.0456 15.8886 37.0398 15.8289C37.0451 15.3595 37.2529 14.9154 37.6091 14.6105C37.9707 14.2413 38.4611 14.0264 38.9773 14.0113C39.4632 13.9752 39.9443 14.1303 40.3174 14.4437C40.6906 14.7571 40.9264 15.2039 40.9746 15.6889L39.5361 34.0838Z" fill="#E3302C"/>
</svg>
