<svg width="44" height="44" viewBox="0 0 44 44" fill="none" xmlns="http://www.w3.org/2000/svg">
<g clip-path="url(#clip0_17_257)">
<path d="M21.9956 9.00452C14.8294 9.00452 9.00342 14.8292 9.00342 21.995C9.00342 29.1526 14.8294 34.9863 21.9956 34.9863C29.1632 34.9863 34.9878 29.1518 34.9878 21.995C34.9878 14.8287 29.1632 9.00452 21.9956 9.00452ZM21.9956 32.7819C16.054 32.7819 11.2095 27.9483 11.2095 21.9958C11.2095 16.0542 16.0445 11.2106 21.9956 11.2106C27.9468 11.2106 32.7817 16.0541 32.7817 21.9958C32.7814 27.9392 27.9382 32.7819 21.9956 32.7819Z" fill="#E3302C"/>
<path d="M42.8466 23.7785L42.0633 22.6982C41.6947 22.1938 41.6855 21.5016 42.0551 20.988L42.8197 19.8984C43.4226 19.0428 43.6385 17.9624 43.3967 16.9356C43.1532 15.9088 42.4876 15.0368 41.5596 14.5416L40.3889 13.9114C39.83 13.614 39.5343 13.0023 39.6332 12.3802L39.8576 11.0659C40.0288 10.0299 39.7502 8.96762 39.093 8.14882C38.427 7.32901 37.4445 6.8345 36.4014 6.78919L35.0683 6.7353C34.4381 6.70802 33.8969 6.28413 33.7267 5.68123L33.34 4.41125C32.8898 2.8538 31.4398 1.76497 29.81 1.76497C29.3149 1.76497 28.8197 1.86421 28.3601 2.06234L27.1355 2.5841C26.5684 2.8276 25.875 2.67516 25.4703 2.21546L24.5792 1.22511C23.8859 0.449969 22.887 0.000183105 21.8521 0.000183105C20.7888 0.000183105 19.781 0.459878 19.0783 1.26064L18.2138 2.26941C17.809 2.73729 17.1243 2.89962 16.5486 2.66602L15.3148 2.16233C14.865 1.98193 14.397 1.88304 13.9197 1.88304C12.2726 1.88304 10.8137 2.99098 10.3806 4.58423L10.0297 5.87088C9.86733 6.47449 9.32749 6.90689 8.69726 6.94233L7.37342 7.02349C6.32921 7.07738 5.34812 7.59061 4.69982 8.41857C4.05051 9.24691 3.79066 10.3188 3.97856 11.3452L4.22205 12.6509C4.33902 13.2719 4.04165 13.8936 3.4926 14.1991L2.33141 14.8474C1.41238 15.3607 0.755877 16.2425 0.530465 17.2693C0.305052 18.2962 0.530465 19.3758 1.15249 20.2222L1.93582 21.2937C2.30446 21.7987 2.31435 22.491 1.944 23.0039L1.17875 24.0934C0.575831 24.9494 0.359961 26.0294 0.602423 27.0563C0.845915 28.0831 1.51158 28.9558 2.43916 29.4503L3.60987 30.0805C4.1688 30.3778 4.46447 30.9896 4.36523 31.6116L4.14084 32.926C3.97033 33.9603 4.24826 35.0243 4.90609 35.8431C5.5721 36.6629 6.5546 37.1574 7.59742 37.202L8.93051 37.2559C9.56072 37.2832 10.1012 37.706 10.2721 38.3093L10.6407 39.5878C11.0905 41.1452 12.5409 42.2351 14.17 42.2351C14.6651 42.2351 15.1603 42.1362 15.62 41.9377L16.8432 41.4156C17.4114 41.1732 18.105 41.3256 18.5095 41.7853L19.4012 42.775C20.0966 43.5501 21.0954 43.9999 22.1305 43.9999C23.1938 43.9999 24.2015 43.5412 24.9043 42.7394L25.7766 41.7307C26.1824 41.2628 26.8661 41.1004 27.4429 41.334L28.676 41.8384C29.1258 42.0185 29.595 42.1177 30.0721 42.1177C31.7192 42.1177 33.1781 41.0098 33.6098 39.4165L33.9607 38.1288C34.1231 37.5259 34.6639 37.0945 35.2938 37.0574L36.6262 36.9772C37.6803 36.9141 38.6522 36.4091 39.2998 35.5815C39.9491 34.7528 40.209 33.6908 40.0211 32.6558L39.7776 31.35C39.6606 30.728 39.958 30.1074 40.507 29.8018L41.6682 29.1525C42.5873 28.6396 43.2438 27.7575 43.4699 26.731C43.6946 25.7048 43.4692 24.6248 42.8468 23.7784L42.8466 23.7785ZM41.3165 26.254C41.2272 26.6687 40.9656 27.0107 40.597 27.2184L39.4358 27.8667C38.0577 28.6313 37.3198 30.1891 37.6072 31.7373L37.8507 33.043C37.9319 33.4669 37.8234 33.8809 37.5632 34.2138C37.3017 34.5473 36.9232 34.7451 36.4918 34.7717L35.168 34.8528C33.5924 34.9439 32.2509 36.0235 31.8372 37.5456L31.4863 38.8241C31.3151 39.4625 30.7296 39.9041 30.0728 39.9041C29.8825 39.9041 29.6943 39.8683 29.5139 39.7967L28.2801 39.2923C27.8299 39.1119 27.362 39.0127 26.885 39.0127C25.8227 39.0127 24.8146 39.4724 24.1125 40.2731L23.2388 41.274C22.9595 41.5973 22.5632 41.777 22.1308 41.777C21.7083 41.777 21.3202 41.6065 21.0419 41.2914L20.1501 40.3011C19.4568 39.5266 18.4576 39.0765 17.4134 39.0765C16.9083 39.0765 16.423 39.1754 15.9634 39.3739L14.7388 39.895C14.5502 39.9761 14.362 40.0133 14.1635 40.0133C13.5142 40.0133 12.939 39.5795 12.7585 38.9592L12.3899 37.6807C11.9482 36.1686 10.5971 35.1053 9.02124 35.0337L7.68885 34.9798C7.26495 34.9621 6.87823 34.7721 6.6174 34.439C6.34765 34.1061 6.24057 33.6925 6.31184 33.2778L6.53623 31.9634C6.79779 30.4053 6.04209 28.866 4.64563 28.1188L3.47562 27.4886C3.09709 27.2904 2.83552 26.9477 2.73697 26.5337C2.63807 26.1197 2.71889 25.6968 2.97125 25.3544L3.7365 24.2649C4.64566 22.9786 4.63745 21.2587 3.70069 19.9803L2.91736 18.9088C2.66569 18.5661 2.57464 18.1436 2.67387 17.7296C2.76493 17.3156 3.0258 16.9728 3.39513 16.7666L4.55633 16.1183C5.93333 15.353 6.67269 13.7956 6.38389 12.2463L6.14961 10.9504C6.06845 10.5265 6.17689 10.1125 6.4371 9.77966C6.69866 9.44683 7.07719 9.24869 7.50855 9.22243L8.83238 9.14127C10.4079 9.05022 11.74 7.97056 12.1638 6.44855L12.5147 5.1619C12.6852 4.5218 13.2714 4.08049 13.9282 4.08049C14.1178 4.08049 14.3067 4.11767 14.4871 4.18894L15.721 4.69263C16.1708 4.87303 16.6387 4.97192 17.1161 4.97192C18.1783 4.97192 19.1871 4.51223 19.8886 3.71146L20.7623 2.71265C21.0416 2.38799 21.4378 2.20759 21.8702 2.20759C22.2927 2.20759 22.6808 2.37981 22.9591 2.69457L23.8502 3.68422C24.5439 4.45868 25.5427 4.90879 26.5876 4.90879C27.0919 4.90879 27.5779 4.80956 28.0375 4.61143L29.2621 4.08966C29.4507 4.0085 29.639 3.9727 29.8374 3.9727C30.4867 3.9727 31.062 4.40477 31.2425 5.02546L31.6111 6.30495C32.0527 7.81701 33.4038 8.8793 34.9797 8.95123L36.3121 9.00614C36.736 9.02421 37.1227 9.21246 37.3925 9.54598C37.6632 9.87881 37.7703 10.2932 37.699 10.7072L37.4736 12.0221C37.2121 13.5796 37.9688 15.1182 39.3642 15.8668L40.5349 16.497C40.9135 16.6941 41.174 17.0368 41.2726 17.4508C41.3718 17.8648 41.2917 18.2887 41.0482 18.6301L40.2836 19.7196C39.3744 21.0073 39.382 22.7264 40.3194 24.0063L41.1027 25.0764C41.3166 25.4175 41.4076 25.8397 41.3166 26.254L41.3165 26.254Z" fill="#E3302C"/>
<path d="M25.1916 18.4217L20.3659 23.2195L18.7986 21.644C18.3665 21.2119 17.6731 21.2119 17.2411 21.644C16.809 22.0761 16.809 22.7694 17.2329 23.2022L19.5829 25.5617C19.7892 25.768 20.0688 25.8853 20.3662 25.8853C20.6537 25.8853 20.9333 25.768 21.1407 25.5617L26.7498 19.988C27.1819 19.5559 27.1819 18.8626 26.7597 18.4305C26.3269 17.9981 25.6237 17.9981 25.1917 18.4217L25.1916 18.4217Z" fill="#E3302C"/>
</g>
<defs>
<clipPath id="clip0_17_257">
<rect width="44" height="44" fill="white"/>
</clipPath>
</defs>
</svg>
