<svg width="44" height="44" viewBox="0 0 44 44" fill="none" xmlns="http://www.w3.org/2000/svg">
<path d="M4.14983 43H39.8473C40.6829 43 41.4841 42.6681 42.0746 42.0775C42.6652 41.487 42.9971 40.6858 42.9971 39.8502V14.4833C42.9943 13.3611 42.3942 12.3252 41.4222 11.7641L23.5735 1.42185C23.0947 1.14554 22.5516 1 21.9985 1C21.4455 1 20.9024 1.14554 20.4236 1.42185L2.57491 11.7641C1.60288 12.3251 1.00279 13.3611 1 14.4833V39.8502C1 40.6858 1.33186 41.487 1.92245 42.0775C2.51304 42.6681 3.31422 43 4.14983 43ZM9.39942 22.0015H34.598V24.1012H27.2483C26.6686 24.1012 26.1986 24.5716 26.1986 25.1513V32.501H18.8489C18.2692 32.501 17.7988 32.971 17.7988 33.5507V40.9004H9.39942V22.0015ZM28.2984 32.5012V26.2015H30.3981V27.2516V27.2512C30.3981 27.8313 30.8685 28.3013 31.4482 28.3013C32.0279 28.3013 32.4983 27.8313 32.4983 27.2512V26.2015H34.598V32.5012L28.2984 32.5012ZM34.598 19.9019H9.39942V17.8018C9.39942 17.2221 9.86943 16.7521 10.4495 16.7521H33.5476C33.826 16.7521 34.0932 16.8624 34.2901 17.0593C34.4869 17.2565 34.5977 17.5233 34.5977 17.8018L34.598 19.9019ZM19.8991 34.6008H21.9989V35.6508C21.9989 36.2305 22.4689 36.7005 23.049 36.7005C23.6287 36.7005 24.0987 36.2305 24.0987 35.6508V34.6008H26.1984V40.9004H19.8991V34.6008ZM28.2985 40.9004V34.6008H30.3983V35.6508C30.3983 36.2305 30.8687 36.7005 31.4484 36.7005C32.0281 36.7005 32.4984 36.2305 32.4984 35.6508V34.6008H34.5982V40.9004H28.2985ZM3.09994 14.4833C3.10944 14.118 3.30841 13.7841 3.62479 13.6016L21.4735 3.25938H21.4739C21.7987 3.07166 22.1987 3.07166 22.5236 3.25938L40.3732 13.6016C40.6959 13.7879 40.8959 14.1317 40.898 14.5043V39.8496C40.898 40.1281 40.7873 40.3952 40.5904 40.5921C40.3936 40.789 40.1264 40.8997 39.848 40.8997H36.6981V17.8007C36.6981 16.9654 36.3663 16.1642 35.7757 15.5737C35.1851 14.9827 34.3839 14.6509 33.5483 14.6509H10.4502C9.61457 14.6509 8.81336 14.9827 8.22281 15.5737C7.63222 16.1643 7.30036 16.9654 7.30036 17.8007V40.8997H4.15054C3.57049 40.8997 3.10048 40.4297 3.10048 39.8496L3.09994 14.4833Z" fill="#E3302C"/>
<path d="M18.8486 11.5017H25.1483C25.728 11.5017 26.1984 11.0317 26.1984 10.452C26.1984 9.87199 25.728 9.40198 25.1483 9.40198H18.8486C18.269 9.40198 17.7986 9.87199 17.7986 10.452C17.7986 11.0317 18.269 11.5017 18.8486 11.5017Z" fill="#E3302C"/>
</svg>
