<svg width="25" height="24" viewBox="0 0 25 24" fill="none" xmlns="http://www.w3.org/2000/svg">
<g clip-path="url(#clip0_14_190)">
<path d="M24.2238 5.35457C23.7691 4.77345 23.0614 4.4197 22.3288 4.4197H6.94059L6.46046 2.54983C6.1825 1.4634 5.22229 0.705322 4.11063 0.705322H1.53326C1.10373 0.705322 0.75 1.05906 0.75 1.48858C0.75 1.91811 1.10374 2.27184 1.53326 2.27184H4.11063C4.48958 2.27184 4.81813 2.52459 4.9193 2.90354L8.00198 15.1837C8.27994 16.2702 9.24015 17.0282 10.3518 17.0282H20.4337C21.5455 17.0282 22.5309 16.2702 22.7835 15.1837L24.6786 7.40122C24.8554 6.69372 24.7038 5.93582 24.2237 5.35457H24.2238ZM23.1374 7.04752L21.2423 14.83C21.1413 15.209 20.8128 15.4617 20.4337 15.4617H10.3518C9.97281 15.4617 9.64426 15.209 9.5431 14.83L7.34483 6.01154H22.3287C22.5815 6.01154 22.834 6.13791 22.9856 6.34007C23.1374 6.54224 23.2132 6.79498 23.1374 7.04757L23.1374 7.04752Z" fill="white"/>
<path d="M10.8823 18.0391C9.44199 18.0391 8.25458 19.2267 8.25458 20.6668C8.25458 22.1072 9.44217 23.2946 10.8823 23.2946C12.3227 23.2948 13.5103 22.1072 13.5103 20.6668C13.5103 19.2267 12.3227 18.0391 10.8823 18.0391ZM10.8823 21.7029C10.3012 21.7029 9.84632 21.2481 9.84632 20.6668C9.84632 20.0857 10.3011 19.6308 10.8823 19.6308C11.4635 19.6308 11.9184 20.0855 11.9184 20.6668C11.9184 21.2227 11.4382 21.7029 10.8823 21.7029Z" fill="white"/>
<path d="M19.5746 18.0391C18.1342 18.0391 16.9468 19.2267 16.9468 20.6668C16.9468 22.1072 18.1344 23.2946 19.5746 23.2946C21.0149 23.2946 22.2023 22.107 22.2023 20.6668C22.1771 19.2267 21.0149 18.0391 19.5746 18.0391ZM19.5746 21.7029C18.9934 21.7029 18.5385 21.2481 18.5385 20.6668C18.5385 20.0857 18.9933 19.6308 19.5746 19.6308C20.1557 19.6308 20.6106 20.0855 20.6106 20.6668C20.6106 21.2227 20.1304 21.7029 19.5746 21.7029Z" fill="white"/>
</g>
<defs>
<clipPath id="clip0_14_190">
<rect width="24" height="24" fill="white" transform="translate(0.75)"/>
</clipPath>
</defs>
</svg>
