<svg width="46" height="46" viewBox="0 0 46 46" fill="none" xmlns="http://www.w3.org/2000/svg">
<path d="M44.9915 10.263C44.12 9.1492 42.7636 8.47117 41.3593 8.47117H11.8653L10.945 4.88726C10.4123 2.80493 8.57188 1.35194 6.44121 1.35194H1.50125C0.677979 1.35194 0 2.02995 0 2.85319C0 3.67646 0.678005 4.35444 1.50125 4.35444H6.44121C7.16753 4.35444 7.79726 4.83888 7.99115 5.56519L13.8996 29.1022C14.4324 31.1846 16.2728 32.6376 18.4035 32.6376H37.7271C39.8581 32.6376 41.7468 31.1846 42.2309 29.1022L45.8632 14.1858C46.202 12.8297 45.9115 11.3771 44.9913 10.263H44.9915ZM42.9092 13.5078L39.2769 28.4243C39.0834 29.1506 38.4537 29.6351 37.727 29.6351H18.4034C17.6771 29.6351 17.0473 29.1506 16.8534 28.4243L12.6401 11.5222H41.3592C41.8436 11.5222 42.3277 11.7644 42.6183 12.1519C42.9091 12.5394 43.0544 13.0238 42.9092 13.5079L42.9092 13.5078Z" fill="#1D1D1D"/>
<path d="M19.4204 34.5749C16.6597 34.5749 14.3838 36.8512 14.3838 39.6115C14.3838 42.3722 16.66 44.6481 19.4204 44.6481C22.181 44.6484 24.4573 42.3722 24.4573 39.6115C24.4573 36.8512 22.181 34.5749 19.4204 34.5749ZM19.4204 41.5972C18.3065 41.5972 17.4346 40.7257 17.4346 39.6115C17.4346 38.4977 18.3062 37.6258 19.4204 37.6258C20.5342 37.6258 21.4061 38.4973 21.4061 39.6115C21.4061 40.677 20.4858 41.5972 19.4204 41.5972Z" fill="#1D1D1D"/>
<path d="M36.0804 34.5749C33.3197 34.5749 31.0438 36.8512 31.0438 39.6115C31.0438 42.3722 33.32 44.6481 36.0804 44.6481C38.8411 44.6481 41.1169 42.3718 41.1169 39.6115C41.0686 36.8512 38.8411 34.5749 36.0804 34.5749ZM36.0804 41.5972C34.9666 41.5972 34.0947 40.7257 34.0947 39.6115C34.0947 38.4977 34.9662 37.6258 36.0804 37.6258C37.1942 37.6258 38.0661 38.4973 38.0661 39.6115C38.0661 40.677 37.1459 41.5972 36.0804 41.5972Z" fill="#1D1D1D"/>
</svg>
