<svg width="50" height="50" viewBox="0 0 50 50" fill="none" xmlns="http://www.w3.org/2000/svg">
<g clip-path="url(#clip0_14_499)">
<path d="M17.497 36.9433C15.5472 36.9433 13.7665 35.9261 12.834 34.2301L11.8168 32.5346C11.6471 32.2803 11.5625 32.1106 11.5625 32.1106L4.52576 46.6927L10.4602 45.3361L13.5123 49.9992L19.9554 36.8581H17.4971L17.497 36.9433Z" fill="white"/>
<path d="M37.929 34.2305C36.9964 35.9259 35.2157 36.9437 33.2659 36.9437L30.1292 37.1134L36.4877 50.0001L39.5398 45.3371L45.4742 46.6937L38.7769 32.7053L37.929 34.2305Z" fill="white"/>
<path d="M43.0158 16.7656L41.1506 13.6289V10.0682C41.1506 9.3053 40.7266 8.54245 40.0483 8.1184L36.9968 6.33772L35.1317 3.20101C34.7077 2.5227 34.0294 2.0987 33.1819 2.0987H29.5367L26.4 0.318015C25.7216 -0.106005 24.8742 -0.106005 24.1958 0.318015L21.0591 2.0987H17.4973C16.7344 2.0987 15.9716 2.52272 15.5475 3.20101L13.7668 6.33772L10.545 8.20288C9.86673 8.6269 9.44273 9.3052 9.44273 10.1527V13.7979L7.66205 16.85C7.49232 17.1888 7.32318 17.6129 7.32318 17.9523C7.32318 18.3763 7.40775 18.7152 7.66205 19.0546L9.44273 22.1067V25.7519C9.44273 26.5148 9.86674 27.2777 10.545 27.7017L13.7668 29.5669L15.5475 32.7036C15.9715 33.3819 16.6498 33.8059 17.4973 33.8059H21.0581L24.1948 35.5866C24.5336 35.7563 24.9576 35.9254 25.2971 35.9254C25.7211 35.9254 26.06 35.8409 26.3994 35.5866L29.5361 33.8059H33.1813C33.9442 33.8059 34.7071 33.3819 35.1311 32.7036L36.9963 29.5669L40.0484 27.7862C40.7267 27.3622 41.1507 26.6839 41.1507 25.8364V22.2756L43.0158 19.0539C43.4399 18.3761 43.4399 17.5281 43.0158 16.7653L43.0158 16.7656ZM32.5034 16.8502L29.3661 19.9023L30.1289 24.2259C30.1289 24.4802 30.0444 24.6499 29.8747 24.8197C29.7901 24.9042 29.6204 24.9042 29.5358 24.9042C29.4512 24.9042 29.3661 24.9042 29.2815 24.8197L25.3813 22.7848L21.4811 24.8197C21.3114 24.9042 21.0571 24.9042 20.8874 24.7351C20.7177 24.5654 20.6331 24.3962 20.6331 24.1413L21.396 19.8177L18.2593 16.7656C18.0895 16.5959 18.005 16.3416 18.0896 16.1719C18.1741 16.0022 18.3438 15.833 18.5981 15.7479L22.9218 15.1541L24.8715 11.254C25.0413 10.8299 25.7196 10.8299 25.8887 11.254L27.8385 15.1541L32.1621 15.7479C32.4164 15.7479 32.5862 15.9176 32.6707 16.1719C32.6725 16.4262 32.5879 16.6811 32.5034 16.8502H32.5034Z" fill="white"/>
</g>
<defs>
<clipPath id="clip0_14_499">
<rect width="50" height="50" fill="white"/>
</clipPath>
</defs>
</svg>
