<svg width="20" height="21" viewBox="0 0 20 21" fill="none" xmlns="http://www.w3.org/2000/svg">
<path d="M10 1.00195C7.8782 1.00195 5.8434 1.84485 4.3432 3.34515C2.84296 4.84547 2 6.88035 2 9.00195C2 13.152 8.54 19.942 9.29 20.702C9.47773 20.8912 9.73336 20.9977 10 20.9977C10.2666 20.9977 10.5223 20.8912 10.71 20.702C11.46 19.942 18 13.152 18 9.00195C18 7.59765 17.6303 6.21815 16.9282 5.00195C16.2261 3.78577 15.2162 2.77595 14 2.07375C12.7838 1.37165 11.4042 1.00195 10 1.00195ZM10 11.502C9.33696 11.502 8.7011 11.2386 8.23226 10.7697C7.76336 10.3009 7.5 9.66501 7.5 9.00195C7.5 8.33889 7.76336 7.70305 8.23226 7.23421C8.70108 6.76531 9.33694 6.50195 10 6.50195C10.6631 6.50195 11.2989 6.76531 11.7677 7.23421C12.2366 7.70303 12.5 8.33889 12.5 9.00195C12.5 9.66501 12.2366 10.3009 11.7677 10.7697C11.2989 11.2386 10.6631 11.502 10 11.502Z" fill="#E3302C"/>
</svg>
