<svg width="48" height="60" viewBox="0 0 48 60" fill="none" xmlns="http://www.w3.org/2000/svg">
<path d="M24 0C17.6346 0 11.5302 2.52923 7.0296 7.03108C2.52888 11.533 0 17.6389 0 24.0051C0 36.4577 19.62 56.832 21.87 59.1125C22.4332 59.6805 23.2001 60 24 60C24.7999 60 25.5668 59.6805 26.13 59.1125C28.38 56.832 48 36.4577 48 24.0051C48 19.7913 46.891 15.6519 44.7846 12.0025C42.6783 8.35322 39.6485 5.32312 36 3.21608C32.3515 1.10933 28.2126 0 24 0ZM24 31.5067C22.0109 31.5067 20.1033 30.7164 18.6968 29.3094C17.2901 27.9027 16.5 25.9947 16.5 24.0051C16.5 22.0155 17.2901 20.1075 18.6968 18.7007C20.1032 17.2937 22.0108 16.5035 24 16.5035C25.9892 16.5035 27.8967 17.2937 29.3032 18.7007C30.7099 20.1075 31.5 22.0155 31.5 24.0051C31.5 25.9947 30.7099 27.9026 29.3032 29.3094C27.8968 30.7164 25.9892 31.5067 24 31.5067Z" fill="#E3302C"/>
<path d="M24 31.5067C22.0109 31.5067 20.1033 30.7164 18.6968 29.3094C17.2901 27.9027 16.5 25.9947 16.5 24.0051C16.5 22.0155 17.2901 20.1075 18.6968 18.7007C20.1032 17.2937 22.0108 16.5035 24 16.5035C25.9892 16.5035 27.8967 17.2937 29.3032 18.7007C30.7099 20.1075 31.5 22.0155 31.5 24.0051C31.5 25.9947 30.7099 27.9026 29.3032 29.3094C27.8968 30.7164 25.9892 31.5067 24 31.5067Z" fill="#E3302C"/>
<g clip-path="url(#clip0_64_2111)">
<path fill-rule="evenodd" clip-rule="evenodd" d="M24.8656 10.8982C24.8656 11.3534 24.4964 11.7227 24.0411 11.7227C23.5855 11.7227 23.217 11.3503 23.2166 10.8982C23.2166 10.443 23.5858 10.0737 24.0411 10.0737C24.4963 10.0737 24.8656 10.4429 24.8656 10.8982ZM38.1787 18.7302C37.1214 18.7003 37.0482 17.1444 38.1787 17.0815C39.2359 17.1113 39.3091 18.6633 38.1787 18.7302ZM9.90601 17.0816C10.3613 17.0816 10.7305 17.4507 10.7305 17.906C10.7305 18.3577 10.3613 18.7302 9.90601 18.7305C9.45076 18.7305 9.08154 18.3613 9.08154 17.906C9.08154 17.4508 9.45074 17.0783 9.90601 17.0816ZM29.8291 24.5407C31.0754 25.4718 33.0602 24.7202 35.1644 22.8022C36.248 21.8117 37.1825 20.6851 37.8008 19.8766L36.1319 31.9408C36.1319 32.6846 33.6436 33.332 29.9592 33.6719V32.6088C32.0137 32.3295 33.3219 31.9078 33.3217 31.4362C33.3217 30.5954 29.1634 29.9137 24.0373 29.9137C18.9117 29.9137 14.7529 30.5954 14.7529 31.4362C14.7529 31.9079 16.0609 32.3296 18.1149 32.6088V33.6715C14.4282 33.3309 11.938 32.6823 11.938 31.9408L10.279 19.8766C11.822 21.9279 15.2057 25.5778 17.6724 24.8432C20.5013 23.8823 23.2072 15.2158 24.0416 12.4232C24.6099 14.3218 27.1167 22.666 29.8291 24.5407Z" fill="white"/>
<path fill-rule="evenodd" clip-rule="evenodd" d="M32.957 15.6189C32.957 16.0742 32.5878 16.4434 32.1326 16.4434C31.6767 16.4434 31.3081 16.0742 31.3081 15.6189C31.3081 15.1637 31.6773 14.7945 32.1326 14.7945C32.5878 14.7945 32.957 15.1636 32.957 15.6189ZM31.083 24.0204C31.921 24.0204 33.1037 23.3898 34.3511 22.2989C34.0608 21.8985 33.6605 21.3094 33.2553 20.5774C32.6524 19.4868 32.1968 18.382 31.8883 17.2865C31.4281 18.2439 30.8342 19.1875 30.1163 20.1035C29.5778 20.7848 29.0671 21.3325 28.685 21.7053C29.4536 23.0171 30.0244 23.5603 30.3513 23.7857C30.5722 23.9469 30.8023 24.0204 31.083 24.0204ZM17.408 23.9604C17.9094 23.7854 18.5955 23.0813 19.3963 21.7004C19.0142 21.3276 18.5034 20.7845 17.9695 20.1032C17.2516 19.1872 16.6624 18.2436 16.1975 17.2862C15.8938 18.3817 15.4334 19.4862 14.8304 20.5771C14.4253 21.3091 14.0294 21.8982 13.7395 22.2986C14.8996 23.316 16.0685 24.0201 16.9938 24.0201C17.1412 24.0201 17.2792 24.0018 17.408 23.9604ZM16.7777 15.6189C16.7777 16.0741 16.4085 16.4434 15.9533 16.4434C15.4977 16.4434 15.1291 16.0742 15.1288 15.6189C15.1288 15.1637 15.498 14.7944 15.9533 14.7944C16.4085 14.7944 16.7777 15.1636 16.7777 15.6189Z" fill="white"/>
</g>
<defs>
<clipPath id="clip0_64_2111">
<rect width="30" height="24" fill="white" transform="translate(9 10)"/>
</clipPath>
</defs>
</svg>
