<svg width="60" height="54" viewBox="0 0 60 54" fill="none" xmlns="http://www.w3.org/2000/svg">
<path d="M21.6454 6.25708H5.24987C2.34737 6.25708 0 8.60445 0 11.5069V27.9092C0 30.8043 2.34737 33.1518 5.24263 33.1518H15.2401C15.4724 34.8018 15.6676 37.7194 14.6699 41.1242C14.13 42.9693 13.3725 44.5215 12.5924 45.774C11.9322 46.8392 13.0423 48.1293 14.1902 47.6339C16.7254 46.5389 18.435 45.2111 19.395 44.3642C25.3575 39.1064 26.4148 31.4568 26.7449 29.1017C26.8124 28.5916 26.8574 28.1715 26.8872 27.9016L26.8877 11.4993C26.8877 8.60473 24.5398 6.25723 21.6451 6.25723L21.6454 6.25708Z" fill="#E3302C"/>
<path d="M54.7506 6.25708H38.3631C35.4606 6.25708 33.1133 8.60445 33.1133 11.5069V27.9092C33.1133 30.8043 35.4606 33.1518 38.3559 33.1518H48.3534C48.5857 34.8018 48.7808 37.7194 47.7832 41.1242C47.2433 42.9693 46.4857 44.5215 45.7057 45.774C45.0454 46.8392 46.1556 48.1293 47.3034 47.6339C49.8387 46.5389 51.5483 45.2111 52.5083 44.3642C58.4708 39.1064 59.528 31.4568 59.8582 29.1017C59.9257 28.5916 59.9707 28.1715 60.0005 27.9016V11.5074C60.0005 8.60486 57.6531 6.25749 54.7506 6.25749L54.7506 6.25708Z" fill="#E3302C"/>
</svg>
