<svg width="180" height="115" viewBox="0 0 180 115" fill="none" xmlns="http://www.w3.org/2000/svg">
<path d="M6.5061 62.1961H14.4834L19.9707 75.5684H20.2473L25.7346 62.1961H33.7119V85.8052H27.4407V72.1562H27.2563L21.9996 85.6207H18.2184L12.9617 72.064H12.7773V85.8052H6.5061V62.1961Z" fill="#E3302C"/>
<path d="M37.9851 85.8052V62.1961H55.0002V67.3606H44.3946V71.4184H54.1241V76.5829H44.3946V80.6407H54.9541V85.8052H37.9851Z" fill="#E3302C"/>
<path d="M59.779 85.8052V74.0006V62.1961H76.3791V67.3606H66.1885V70.1273H68.5863C70.5691 70.1273 72.3021 70.4462 73.7853 71.0841C75.2763 71.722 76.4329 72.6211 77.2552 73.7816C78.0852 74.9421 78.5002 76.3062 78.5002 77.874C78.5002 79.4418 78.0852 80.8213 77.2552 82.0125C76.4329 83.2037 75.2763 84.1336 73.7853 84.8023C72.3021 85.4709 70.5691 85.8052 68.5863 85.8052H59.779ZM66.1885 80.779H68.5863C69.3548 80.779 70.0004 80.6522 70.523 80.3986C71.0532 80.145 71.4529 79.7953 71.7219 79.3496C71.9985 78.9038 72.1369 78.3966 72.1369 77.8279C72.1369 77.0209 71.8333 76.3523 71.2262 75.8221C70.619 75.2841 69.7391 75.0151 68.5863 75.0151H66.1885V80.779Z" fill="#E3302C"/>
<path d="M83.4851 85.8052V62.1961H100.5V67.3606H89.8946V71.4184H99.6241V76.5829H89.8946V80.6407H100.454V85.8052H83.4851Z" fill="#E3302C"/>
<path d="M104.19 85.8052V80.8713L104.835 80.779C105.619 80.6561 106.268 80.3179 106.783 79.7646C107.306 79.2036 107.706 78.3159 107.982 77.1017C108.267 75.8797 108.447 74.2158 108.524 72.1101L108.893 62.1961H126V85.8052H119.821V67.1762H114.795L114.426 74.6001C114.288 77.3514 113.919 79.5456 113.32 81.1825C112.72 82.8195 111.809 83.9992 110.587 84.7216C109.366 85.444 107.755 85.8052 105.757 85.8052H104.19Z" fill="#E3302C"/>
<path d="M133.42 70.1273H138.308C140.298 70.1273 142.035 70.4462 143.518 71.0841C145.009 71.722 146.166 72.6211 146.988 73.7816C147.818 74.9421 148.229 76.3062 148.222 77.874C148.229 79.4418 147.818 80.8213 146.988 82.0125C146.166 83.2037 145.009 84.1336 143.518 84.8023C142.035 85.4709 140.298 85.8052 138.308 85.8052H129.5V62.1961H135.91V80.779H138.308C139.084 80.779 139.733 80.6522 140.256 80.3986C140.786 80.145 141.186 79.7953 141.455 79.3496C141.731 78.9038 141.866 78.3966 141.858 77.8279C141.866 77.021 141.566 76.3523 140.959 75.8221C140.352 75.2841 139.468 75.0151 138.308 75.0151H133.42V70.1273Z" fill="#E3302C"/>
<g clip-path="url(#clip0_803_1990)">
<path fill-rule="evenodd" clip-rule="evenodd" d="M20.7878 1.36864C20.7878 1.96512 20.3041 2.44889 19.7076 2.44889C19.1107 2.44889 18.6277 1.96094 18.6273 1.36864C18.6273 0.772162 19.111 0.288391 19.7076 0.288391C20.304 0.288391 20.7878 0.772129 20.7878 1.36864ZM38.2312 11.6304C36.8459 11.5913 36.75 9.55271 38.2312 9.47022C39.6164 9.50934 39.7124 11.5428 38.2312 11.6304ZM1.18718 9.47032C1.78366 9.47032 2.26743 9.95406 2.26743 10.5506C2.26743 11.1424 1.78369 11.6304 1.18718 11.6308C0.590702 11.6308 0.106934 11.1471 0.106934 10.5506C0.106934 9.95409 0.59067 9.46612 1.18718 9.47032ZM27.2912 19.2436C28.9242 20.4635 31.5247 19.4788 34.2818 16.9657C35.7015 15.6679 36.9259 14.1918 37.7361 13.1326L35.5494 28.9395C35.5494 29.9141 32.2892 30.7623 27.4617 31.2077V29.8148C30.1535 29.4488 31.8676 28.8963 31.8674 28.2783C31.8674 27.1767 26.419 26.2836 19.7026 26.2836C12.9868 26.2836 7.53783 27.1767 7.53783 28.2783C7.53783 28.8964 9.25153 29.4489 11.9429 29.8148V31.2072C7.11228 30.7608 3.84952 29.9111 3.84952 28.9395L1.67588 13.1326C3.69757 15.8202 8.13099 20.6024 11.363 19.6399C15.0695 18.381 18.6149 7.02574 19.7082 3.36672C20.4528 5.85438 23.7374 16.7873 27.2912 19.2436Z" fill="#1270FF"/>
<path fill-rule="evenodd" clip-rule="evenodd" d="M31.3895 7.55378C31.3895 8.15026 30.9058 8.63403 30.3093 8.63403C29.712 8.63403 29.229 8.15029 29.229 7.55378C29.229 6.9573 29.7128 6.47353 30.3093 6.47353C30.9058 6.47353 31.3895 6.95727 31.3895 7.55378ZM28.9341 18.5617C30.0321 18.5617 31.5818 17.7355 33.2161 16.3062C32.8358 15.7816 32.3113 15.0097 31.7804 14.0506C30.9904 12.6217 30.3935 11.1741 29.9892 9.73878C29.3863 10.9932 28.6081 12.2295 27.6675 13.4297C26.962 14.3223 26.2927 15.04 25.7922 15.5284C26.7992 17.2471 27.5471 17.9589 27.9754 18.2542C28.2648 18.4654 28.5664 18.5617 28.9341 18.5617ZM11.0165 18.4831C11.6736 18.2538 12.5726 17.3314 13.6217 15.522C13.1212 15.0335 12.4519 14.3219 11.7523 13.4292C10.8116 12.2291 10.0397 10.9927 9.43057 9.73833C9.03265 11.1736 8.42935 12.6208 7.63934 14.0502C7.10851 15.0093 6.58982 15.7812 6.20996 16.3058C7.72991 17.6388 9.26149 18.5614 10.4739 18.5614C10.667 18.5614 10.8479 18.5374 11.0165 18.4831ZM10.1908 7.55376C10.1908 8.15024 9.70703 8.63401 9.11052 8.63401C8.51362 8.63401 8.03069 8.15027 8.03027 7.55376C8.03027 6.95728 8.51401 6.47351 9.11052 6.47351C9.707 6.47351 10.1908 6.95725 10.1908 7.55376Z" fill="#1B2373"/>
</g>
<path d="M6.5061 112.621V101.116H15.5964V112.621H13.7654V102.72H8.32092V112.621H6.5061Z" fill="#1D1D1D"/>
<path d="M22.9797 112.702C22.1479 112.702 21.3972 112.54 20.7274 112.216C20.0576 111.892 19.4797 111.454 18.9936 110.903C18.5075 110.341 18.1294 109.715 17.8593 109.024C17.6001 108.321 17.4704 107.603 17.4704 106.868C17.4704 106.101 17.6109 105.372 17.8917 104.681C18.1726 103.979 18.5615 103.358 19.0584 102.818C19.5553 102.267 20.1387 101.834 20.8084 101.521C21.489 101.197 22.2235 101.035 23.0121 101.035C23.8331 101.035 24.5785 101.203 25.2482 101.537C25.9288 101.872 26.5067 102.321 26.982 102.882C27.4681 103.444 27.8408 104.071 28.1001 104.762C28.3702 105.453 28.5052 106.161 28.5052 106.885C28.5052 107.652 28.3647 108.386 28.0839 109.088C27.8138 109.78 27.4303 110.401 26.9334 110.952C26.4365 111.492 25.8478 111.919 25.1672 112.232C24.4975 112.545 23.7683 112.702 22.9797 112.702ZM19.3177 106.868C19.3177 107.409 19.4041 107.932 19.5769 108.44C19.7498 108.948 19.9928 109.402 20.3061 109.801C20.6302 110.19 21.0191 110.498 21.4728 110.725C21.9265 110.952 22.4342 111.065 22.9959 111.065C23.5793 111.065 24.0978 110.946 24.5515 110.709C25.0052 110.471 25.3833 110.152 25.6857 109.753C25.999 109.342 26.2367 108.888 26.3987 108.392C26.5607 107.884 26.6418 107.376 26.6418 106.868C26.6418 106.328 26.5553 105.81 26.3825 105.313C26.2205 104.805 25.9774 104.357 25.6533 103.968C25.3293 103.568 24.9404 103.255 24.4867 103.028C24.0438 102.801 23.5468 102.688 22.9959 102.688C22.4126 102.688 21.8941 102.807 21.4404 103.044C20.9867 103.282 20.6032 103.601 20.2899 104C19.9766 104.4 19.7336 104.848 19.5607 105.345C19.3987 105.842 19.3177 106.35 19.3177 106.868Z" fill="#1D1D1D"/>
<path d="M39.1676 112.702C38.3358 112.702 37.585 112.54 36.9153 112.216C36.2455 111.892 35.6676 111.454 35.1815 110.903C34.6954 110.341 34.3173 109.715 34.0472 109.024C33.788 108.321 33.6583 107.603 33.6583 106.868C33.6583 106.101 33.7988 105.372 34.0796 104.681C34.3605 103.979 34.7494 103.358 35.2463 102.818C35.7432 102.267 36.3266 101.834 36.9963 101.521C37.6769 101.197 38.4114 101.035 39.2 101.035C40.021 101.035 40.7664 101.203 41.4361 101.537C42.1167 101.872 42.6946 102.321 43.1699 102.882C43.656 103.444 44.0287 104.071 44.288 104.762C44.558 105.453 44.6931 106.161 44.6931 106.885C44.6931 107.652 44.5526 108.386 44.2718 109.088C44.0017 109.78 43.6182 110.401 43.1213 110.952C42.6244 111.492 42.0357 111.919 41.3551 112.232C40.6854 112.545 39.9562 112.702 39.1676 112.702ZM35.5056 106.868C35.5056 107.409 35.592 107.932 35.7648 108.44C35.9377 108.948 36.1807 109.402 36.494 109.801C36.8181 110.19 37.207 110.498 37.6607 110.725C38.1144 110.952 38.6221 111.065 39.1838 111.065C39.7671 111.065 40.2857 110.946 40.7394 110.709C41.1931 110.471 41.5712 110.152 41.8736 109.753C42.1869 109.342 42.4246 108.888 42.5866 108.392C42.7486 107.884 42.8296 107.376 42.8296 106.868C42.8296 106.328 42.7432 105.81 42.5704 105.313C42.4084 104.805 42.1653 104.357 41.8412 103.968C41.5171 103.568 41.1283 103.255 40.6746 103.028C40.2317 102.801 39.7347 102.688 39.1838 102.688C38.6005 102.688 38.082 102.807 37.6283 103.044C37.1745 103.282 36.7911 103.601 36.4778 104C36.1645 104.4 35.9215 104.848 35.7486 105.345C35.5866 105.842 35.5056 106.35 35.5056 106.868Z" fill="#1D1D1D"/>
<path d="M46.5881 112.621V101.116H55.6784V112.621H53.8474V102.72H48.403V112.621H46.5881Z" fill="#1D1D1D"/>
<path d="M66.7238 102.72H62.8997V112.621H61.0687V102.72H57.2284V101.116H66.7238V102.72Z" fill="#1D1D1D"/>
<path d="M72.7302 112.702C71.8984 112.702 71.1476 112.54 70.4779 112.216C69.8081 111.892 69.2302 111.454 68.7441 110.903C68.258 110.341 67.8799 109.715 67.6098 109.024C67.3506 108.321 67.2209 107.603 67.2209 106.868C67.2209 106.101 67.3614 105.372 67.6422 104.681C67.9231 103.979 68.312 103.358 68.8089 102.818C69.3058 102.267 69.8891 101.834 70.5589 101.521C71.2394 101.197 71.974 101.035 72.7626 101.035C73.5836 101.035 74.329 101.203 74.9987 101.537C75.6793 101.872 76.2572 102.321 76.7325 102.882C77.2186 103.444 77.5913 104.071 77.8506 104.762C78.1206 105.453 78.2557 106.161 78.2557 106.885C78.2557 107.652 78.1152 108.386 77.8344 109.088C77.5643 109.78 77.1808 110.401 76.6839 110.952C76.187 111.492 75.5982 111.919 74.9177 112.232C74.2479 112.545 73.5188 112.702 72.7302 112.702ZM69.0681 106.868C69.0681 107.409 69.1546 107.932 69.3274 108.44C69.5002 108.948 69.7433 109.402 70.0566 109.801C70.3807 110.19 70.7695 110.498 71.2232 110.725C71.6769 110.952 72.1847 111.065 72.7464 111.065C73.3297 111.065 73.8482 110.946 74.3019 110.709C74.7557 110.471 75.1337 110.152 75.4362 109.753C75.7495 109.342 75.9871 108.888 76.1492 108.392C76.3112 107.884 76.3922 107.376 76.3922 106.868C76.3922 106.328 76.3058 105.81 76.133 105.313C75.9709 104.805 75.7279 104.357 75.4038 103.968C75.0797 103.568 74.6908 103.255 74.2371 103.028C73.7942 102.801 73.2973 102.688 72.7464 102.688C72.1631 102.688 71.6445 102.807 71.1908 103.044C70.7371 103.282 70.3536 103.601 70.0404 104C69.7271 104.4 69.484 104.848 69.3112 105.345C69.1492 105.842 69.0681 106.35 69.0681 106.868Z" fill="#1D1D1D"/>
<path d="M89.1762 109.655C89.1762 110.271 89.0142 110.801 88.6901 111.243C88.3768 111.686 87.9501 112.027 87.41 112.264C86.8699 112.502 86.2757 112.621 85.6276 112.621H80.1345V101.116H86.0651C86.6052 101.116 87.0697 101.262 87.4586 101.554C87.8583 101.834 88.1608 102.202 88.366 102.655C88.5821 103.098 88.6901 103.563 88.6901 104.049C88.6901 104.611 88.5443 105.14 88.2526 105.637C87.9717 106.123 87.5666 106.485 87.0373 106.723C87.6963 106.917 88.2148 107.274 88.5929 107.792C88.9818 108.3 89.1762 108.921 89.1762 109.655ZM87.3128 109.315C87.3128 108.991 87.2426 108.699 87.1021 108.44C86.9725 108.17 86.7889 107.954 86.5512 107.792C86.3243 107.619 86.0543 107.533 85.741 107.533H81.9493V111.049H85.6276C85.9517 111.049 86.2379 110.973 86.4864 110.822C86.7456 110.66 86.9455 110.449 87.0859 110.19C87.2372 109.92 87.3128 109.628 87.3128 109.315ZM81.9493 102.688V106.074H85.2873C85.5898 106.074 85.8598 106.004 86.0975 105.864C86.3352 105.713 86.5242 105.513 86.6646 105.264C86.8051 105.005 86.8753 104.713 86.8753 104.389C86.8753 104.054 86.8105 103.763 86.6808 103.514C86.5512 103.255 86.373 103.055 86.1461 102.915C85.9301 102.763 85.6762 102.688 85.3845 102.688H81.9493Z" fill="#1D1D1D"/>
<path d="M91.0689 112.621V101.116H92.8837V105.361H95.4601C96.3027 105.361 97.0102 105.513 97.5828 105.815C98.1661 106.107 98.6036 106.523 98.8953 107.063C99.1977 107.603 99.349 108.24 99.349 108.975C99.349 109.666 99.2031 110.293 98.9115 110.855C98.6198 111.405 98.1931 111.838 97.6314 112.151C97.0696 112.464 96.3837 112.621 95.5735 112.621H91.0689ZM92.8837 111.114H95.3142C95.822 111.114 96.2379 111.017 96.5619 110.822C96.886 110.628 97.1183 110.368 97.2587 110.044C97.4099 109.709 97.4855 109.353 97.4855 108.975C97.4855 108.608 97.4153 108.262 97.2749 107.938C97.1453 107.614 96.9184 107.355 96.5943 107.16C96.2811 106.966 95.849 106.868 95.298 106.868H92.8837V111.114ZM101.164 112.621V101.132H102.995V112.621H101.164Z" fill="#1D1D1D"/>
<path d="M115.237 112.621V104.422L111.851 110.644H110.781L107.378 104.422V112.621H105.564V101.116H107.508L111.316 108.149L115.124 101.116H117.068V112.621H115.237Z" fill="#1D1D1D"/>
<path d="M132.303 114.808V112.621H123.666V101.116H125.481V111.017H130.618V101.116H132.449V111.017H133.907V114.808H132.303Z" fill="#1D1D1D"/>
<path d="M143.647 111.017V112.621H135.756V101.116H143.501V102.72H137.571V105.993H142.707V107.5H137.571V111.017H143.647Z" fill="#1D1D1D"/>
<path d="M154.966 101.116V112.621H153.135V107.549H147.334V112.621H145.519V101.116H147.334V105.929H153.135V101.116H154.966Z" fill="#1D1D1D"/>
<path d="M160.883 101.116H162.6L167.073 112.621H165.161L163.945 109.493H159.506L158.306 112.621H156.378L160.883 101.116ZM163.589 108.149L161.742 103.109L159.83 108.149H163.589Z" fill="#1D1D1D"/>
<path d="M178.169 112.621V104.422L174.782 110.644H173.713L170.31 104.422V112.621H168.495V101.116H170.44L174.248 108.149L178.056 101.116H180V112.621H178.169Z" fill="#1D1D1D"/>
<path d="M6 43.296C6 41.9093 6.256 40.5547 6.768 39.232C7.28 37.888 8.02667 36.672 9.008 35.584C9.98933 34.496 11.184 33.632 12.592 32.992C14 32.3307 15.6 32 17.392 32C19.5253 32 21.3707 32.4587 22.928 33.376C24.5067 34.2933 25.68 35.488 26.448 36.96L22.416 39.776C22.0747 38.9653 21.616 38.336 21.04 37.888C20.4853 37.44 19.8667 37.1307 19.184 36.96C18.5227 36.768 17.8827 36.672 17.264 36.672C16.2613 36.672 15.3867 36.8747 14.64 37.28C13.8933 37.664 13.2747 38.1867 12.784 38.848C12.2933 39.5093 11.9307 40.2453 11.696 41.056C11.4613 41.8667 11.344 42.6773 11.344 43.488C11.344 44.384 11.4827 45.248 11.76 46.08C12.0373 46.912 12.432 47.648 12.944 48.288C13.4773 48.928 14.1173 49.44 14.864 49.824C15.6107 50.1867 16.432 50.368 17.328 50.368C17.968 50.368 18.6187 50.2613 19.28 50.048C19.9413 49.8347 20.5493 49.504 21.104 49.056C21.68 48.5867 22.1173 47.9787 22.416 47.232L26.704 49.76C26.256 50.8693 25.52 51.8187 24.496 52.608C23.472 53.3973 22.3093 54.0053 21.008 54.432C19.728 54.8373 18.4587 55.04 17.2 55.04C15.5573 55.04 14.0427 54.7093 12.656 54.048C11.2907 53.3653 10.1067 52.4693 9.104 51.36C8.12267 50.2293 7.35467 48.9707 6.8 47.584C6.26667 46.176 6 44.7467 6 43.296Z" fill="url(#paint0_linear_803_1990)"/>
<path d="M29.4713 54.848V32.128H34.7192V47.392L44.5113 32.128H49.4073V54.848H44.1593V39.68L34.4953 54.848H29.4713Z" fill="url(#paint1_linear_803_1990)"/>
<path d="M54.0018 54.848V32.128H70.8337V36.64H59.2498V41.184H64.8498C67.4311 41.184 69.3724 41.792 70.6738 43.008C71.9964 44.2027 72.6578 45.824 72.6578 47.872C72.6578 49.28 72.3698 50.5067 71.7938 51.552C71.2391 52.5973 70.4071 53.408 69.2978 53.984C68.1884 54.56 66.8018 54.848 65.1378 54.848H54.0018ZM59.2498 50.336H64.4018C65.1058 50.336 65.6604 50.208 66.0658 49.952C66.4924 49.696 66.7911 49.376 66.9618 48.992C67.1538 48.5867 67.2498 48.16 67.2498 47.712C67.2498 47.2853 67.1644 46.88 66.9938 46.496C66.8444 46.112 66.5564 45.8133 66.1297 45.6C65.7031 45.3653 65.1057 45.248 64.3377 45.248H59.2498V50.336Z" fill="url(#paint2_linear_803_1990)"/>
<path d="M75.5963 54.848V32.128H80.8443V47.392L90.6363 32.128H95.5322V54.848H90.2842V39.68L80.6202 54.848H75.5963Z" fill="url(#paint3_linear_803_1990)"/>
<path d="M100.031 54.848V32.128H109.727C110.815 32.128 111.807 32.352 112.703 32.8C113.62 33.2267 114.409 33.8133 115.071 34.56C115.732 35.2853 116.244 36.1067 116.607 37.024C116.969 37.9413 117.151 38.88 117.151 39.84C117.151 41.1413 116.841 42.3787 116.223 43.552C115.625 44.7253 114.783 45.6853 113.695 46.432C112.628 47.1573 111.359 47.52 109.887 47.52H105.279V54.848H100.031ZM105.279 42.944H109.567C109.972 42.944 110.345 42.8267 110.687 42.592C111.028 42.3573 111.305 42.0053 111.519 41.536C111.732 41.0667 111.839 40.4907 111.839 39.808C111.839 39.104 111.711 38.528 111.455 38.08C111.22 37.6107 110.911 37.2693 110.527 37.056C110.164 36.8427 109.78 36.736 109.375 36.736H105.279V42.944Z" fill="url(#paint4_linear_803_1990)"/>
<path d="M120.064 54.848V32.128H125.312V39.968H129.536C131.222 39.968 132.662 40.2667 133.856 40.864C135.051 41.4613 135.968 42.3147 136.608 43.424C137.248 44.5333 137.568 45.8453 137.568 47.36C137.568 48.8533 137.259 50.1653 136.64 51.296C136.022 52.4267 135.136 53.3013 133.984 53.92C132.832 54.5387 131.446 54.848 129.824 54.848H120.064ZM125.312 50.56H129.056C129.782 50.56 130.379 50.4213 130.848 50.144C131.318 49.8667 131.659 49.4827 131.872 48.992C132.107 48.5013 132.224 47.9573 132.224 47.36C132.224 46.8053 132.107 46.2933 131.872 45.824C131.659 45.3547 131.318 44.9813 130.848 44.704C130.4 44.4053 129.803 44.256 129.056 44.256H125.312V50.56Z" fill="url(#paint5_linear_803_1990)"/>
<defs>
<linearGradient id="paint0_linear_803_1990" x1="77.136" y1="24.848" x2="77.136" y2="60.848" gradientUnits="userSpaceOnUse">
<stop stop-color="#1611FF"/>
<stop offset="1" stop-color="#118DFF"/>
</linearGradient>
<linearGradient id="paint1_linear_803_1990" x1="77.136" y1="24.848" x2="77.136" y2="60.848" gradientUnits="userSpaceOnUse">
<stop stop-color="#1611FF"/>
<stop offset="1" stop-color="#118DFF"/>
</linearGradient>
<linearGradient id="paint2_linear_803_1990" x1="77.136" y1="24.848" x2="77.136" y2="60.848" gradientUnits="userSpaceOnUse">
<stop stop-color="#1611FF"/>
<stop offset="1" stop-color="#118DFF"/>
</linearGradient>
<linearGradient id="paint3_linear_803_1990" x1="77.136" y1="24.848" x2="77.136" y2="60.848" gradientUnits="userSpaceOnUse">
<stop stop-color="#1611FF"/>
<stop offset="1" stop-color="#118DFF"/>
</linearGradient>
<linearGradient id="paint4_linear_803_1990" x1="77.136" y1="24.848" x2="77.136" y2="60.848" gradientUnits="userSpaceOnUse">
<stop stop-color="#1611FF"/>
<stop offset="1" stop-color="#118DFF"/>
</linearGradient>
<linearGradient id="paint5_linear_803_1990" x1="77.136" y1="24.848" x2="77.136" y2="60.848" gradientUnits="userSpaceOnUse">
<stop stop-color="#1611FF"/>
<stop offset="1" stop-color="#118DFF"/>
</linearGradient>
<clipPath id="clip0_803_1990">
<rect width="39.3072" height="31.4458" fill="white" transform="translate(0 0.191711)"/>
</clipPath>
</defs>
</svg>
