<svg width="180" height="115" viewBox="0 0 180 115" fill="none" xmlns="http://www.w3.org/2000/svg">
<path d="M16.7272 33.097H23.0348C25.0146 33.097 26.768 33.4998 28.295 34.3055C29.8298 35.1113 31.0307 36.2546 31.8978 37.7356C32.7726 39.2166 33.2099 40.97 33.2099 42.9958C33.2099 44.9142 32.7726 46.5755 31.8978 47.9798C31.0307 49.384 29.8298 50.4698 28.295 51.2372C26.768 52.0046 25.0146 52.3882 23.0348 52.3882H16.7272C14.7321 52.3882 12.9633 52.0084 11.4209 51.2487C9.88623 50.489 8.68148 49.4032 7.8067 47.9913C6.93959 46.5794 6.50603 44.8989 6.50603 42.9498C6.50603 40.924 6.94726 39.1744 7.82972 37.7011C8.71985 36.2278 9.93227 35.0921 11.467 34.294C13.0094 33.496 14.7628 33.097 16.7272 33.097ZM16.7272 38.3457C15.9291 38.3457 15.1925 38.4953 14.5172 38.7946C13.8496 39.0938 13.3125 39.5811 12.9058 40.2564C12.5067 40.9316 12.3072 41.8294 12.3072 42.9498C12.3072 43.978 12.5144 44.7991 12.9288 45.413C13.3508 46.0269 13.8957 46.4681 14.5633 46.7367C15.2385 47.0052 15.9598 47.1395 16.7272 47.1395H23.0809C23.8636 47.1395 24.5772 47.0014 25.2218 46.7252C25.874 46.4412 26.392 45.9962 26.7757 45.39C27.167 44.7761 27.3627 43.978 27.3627 42.9958C27.3627 41.8755 27.167 40.9738 26.7757 40.2909C26.392 39.6079 25.874 39.113 25.2218 38.8061C24.5772 38.4991 23.8636 38.3457 23.0809 38.3457H16.7272ZM22.8507 30.3345V55.2888H16.8653V30.3345H22.8507Z" fill="url(#paint0_linear_5_47)"/>
<path d="M59.6471 42.5354C59.6471 45.1598 59.1368 47.3736 58.1162 49.1769C57.0956 50.9725 55.7182 52.3345 53.984 53.263C52.2498 54.1838 50.316 54.6443 48.1828 54.6443C46.0342 54.6443 44.0928 54.18 42.3586 53.2515C40.632 52.3153 39.2585 50.9494 38.2379 49.1538C37.225 47.3506 36.7185 45.1444 36.7185 42.5354C36.7185 39.9111 37.225 37.7011 38.2379 35.9055C39.2585 34.1022 40.632 32.7401 42.3586 31.8193C44.0928 30.8908 46.0342 30.4266 48.1828 30.4266C50.316 30.4266 52.2498 30.8908 53.984 31.8193C55.7182 32.7401 57.0956 34.1022 58.1162 35.9055C59.1368 37.7011 59.6471 39.9111 59.6471 42.5354ZM53.0632 42.5354C53.0632 41.1235 52.8752 39.9341 52.4991 38.9672C52.1308 37.9927 51.5822 37.256 50.8532 36.7572C50.1319 36.2508 49.2417 35.9975 48.1828 35.9975C47.1238 35.9975 46.2299 36.2508 45.5009 36.7572C44.7796 37.256 44.2309 37.9927 43.8549 38.9672C43.4866 39.9341 43.3024 41.1235 43.3024 42.5354C43.3024 43.9473 43.4866 45.1406 43.8549 46.1151C44.2309 47.082 44.7796 47.8186 45.5009 48.3251C46.2299 48.8239 47.1238 49.0733 48.1828 49.0733C49.2417 49.0733 50.1319 48.8239 50.8532 48.3251C51.5822 47.8186 52.1308 47.082 52.4991 46.1151C52.8752 45.1406 53.0632 43.9473 53.0632 42.5354Z" fill="url(#paint1_linear_5_47)"/>
<path d="M63.2563 54.322V30.7488H73.4315C75.181 30.7488 76.7119 31.0942 78.0241 31.7848C79.3362 32.4754 80.3568 33.4461 81.0858 34.6969C81.8148 35.9477 82.1793 37.4095 82.1793 39.0823C82.1793 40.7705 81.8033 42.2323 81.0513 43.4677C80.3069 44.7032 79.2595 45.6547 77.909 46.3223C76.5661 46.9899 74.9969 47.3237 73.2012 47.3237H67.1238V42.3512H71.9121C72.6641 42.3512 73.3048 42.2208 73.8343 41.9599C74.3715 41.6913 74.782 41.3115 75.0659 40.8204C75.3575 40.3293 75.5033 39.7499 75.5033 39.0823C75.5033 38.407 75.3575 37.8315 75.0659 37.3558C74.782 36.8723 74.3715 36.504 73.8343 36.2508C73.3048 35.9899 72.6641 35.8594 71.9121 35.8594H69.6561V54.322H63.2563Z" fill="url(#paint2_linear_5_47)"/>
<path d="M84.5311 35.9055V30.7488H105.019V35.9055H97.9291V54.322H91.6214V35.9055H84.5311Z" fill="url(#paint3_linear_5_47)"/>
<path d="M111.483 54.6443V49.6718H112.634C113.31 49.6718 113.843 49.6181 114.234 49.5107C114.633 49.3955 114.94 49.196 115.155 48.9121C115.378 48.6205 115.566 48.2138 115.719 47.692L115.949 47.0014L107.109 30.7488H113.647L118.574 40.3254L122.349 30.7488H128.795L120.692 49.1653C120.246 50.1322 119.717 51.0338 119.103 51.8703C118.489 52.699 117.726 53.3704 116.813 53.8846C115.899 54.391 114.768 54.6443 113.417 54.6443H111.483Z" fill="url(#paint4_linear_5_47)"/>
<path d="M131.515 54.322V30.7488H137.915V39.9571H146.386V30.7488H152.786V54.322H146.386V45.1137H137.915V54.322H131.515Z" fill="url(#paint5_linear_5_47)"/>
<path d="M162.596 54.322H155.69L163.471 30.7488H172.219L180 54.322H173.094L167.937 37.2407H167.753L162.596 54.322ZM161.307 45.0216H174.291V49.8099H161.307V45.0216Z" fill="url(#paint6_linear_5_47)"/>
<path d="M6.50603 62.1961H14.4833L19.9706 75.5685H20.2473L25.7345 62.1961H33.7118V85.8052H27.4406V72.1562H27.2562L21.9995 85.6208H18.2184L12.9616 72.064H12.7772V85.8052H6.50603V62.1961Z" fill="#E3302C"/>
<path d="M44.5404 85.8052V62.1961H61.5555V67.3606H50.9499V71.4184H60.6794V76.5829H50.9499V80.6407H61.5094V85.8052H44.5404Z" fill="#E3302C"/>
<path d="M72.5253 85.8052V62.1961H89.1255V67.3606H78.9348V70.1273H81.3326C83.3154 70.1273 85.0484 70.4462 86.5317 71.0841C88.0226 71.722 89.1793 72.6212 90.0016 73.7816C90.8316 74.9421 91.2466 76.3062 91.2466 77.874C91.2466 79.4418 90.8316 80.8213 90.0016 82.0125C89.1793 83.2037 88.0226 84.1337 86.5317 84.8023C85.0484 85.4709 83.3154 85.8052 81.3326 85.8052H72.5253ZM78.9348 80.7791H81.3326C82.1012 80.7791 82.7467 80.6522 83.2693 80.3986C83.7996 80.145 84.1992 79.7953 84.4682 79.3496C84.7449 78.9039 84.8832 78.3966 84.8832 77.8279C84.8832 77.021 84.5796 76.3523 83.9725 75.8221C83.3654 75.2841 82.4854 75.0151 81.3326 75.0151H78.9348V80.7791Z" fill="#E3302C"/>
<path d="M101.303 85.8052V62.1961H118.318V67.3606H107.712V71.4184H117.442V76.5829H107.712V80.6407H118.272V85.8052H101.303Z" fill="#E3302C"/>
<path d="M128.504 85.8052V80.8713L129.149 80.7791C129.933 80.6561 130.583 80.3179 131.098 79.7646C131.62 79.2036 132.02 78.3159 132.297 77.1017C132.581 75.8797 132.761 74.2158 132.838 72.1101L133.207 62.1961H150.315V85.8052H144.136V67.1762H139.11L138.741 74.6001C138.602 77.3514 138.233 79.5456 137.634 81.1825C137.034 82.8195 136.124 83.9992 134.902 84.7216C133.68 85.444 132.07 85.8052 130.072 85.8052H128.504Z" fill="#E3302C"/>
<path d="M165.198 70.1273H170.086C172.076 70.1273 173.813 70.4462 175.297 71.0841C176.787 71.722 177.944 72.6212 178.766 73.7816C179.596 74.9421 180.008 76.3062 180 77.874C180.008 79.4418 179.596 80.8213 178.766 82.0125C177.944 83.2037 176.787 84.1337 175.297 84.8023C173.813 85.4709 172.076 85.8052 170.086 85.8052H161.279V62.1961H167.688V80.7791H170.086C170.862 80.7791 171.512 80.6522 172.034 80.3986C172.564 80.145 172.964 79.7953 173.233 79.3496C173.51 78.9039 173.644 78.3966 173.636 77.8279C173.644 77.021 173.344 76.3523 172.737 75.8221C172.13 75.2841 171.246 75.0151 170.086 75.0151H165.198V70.1273Z" fill="#E3302C"/>
<g clip-path="url(#clip0_5_47)">
<path fill-rule="evenodd" clip-rule="evenodd" d="M20.7877 1.36869C20.7877 1.96517 20.304 2.44894 19.7075 2.44894C19.1106 2.44894 18.6276 1.96099 18.6272 1.36869C18.6272 0.772209 19.111 0.288439 19.7075 0.288439C20.3039 0.288439 20.7877 0.772177 20.7877 1.36869ZM38.2311 11.6304C36.8459 11.5913 36.7499 9.55276 38.2311 9.47026C39.6163 9.50939 39.7123 11.5429 38.2311 11.6304ZM1.18709 9.47037C1.78357 9.47037 2.26734 9.95411 2.26734 10.5506C2.26734 11.1425 1.7836 11.6304 1.18709 11.6309C0.590611 11.6309 0.106842 11.1471 0.106842 10.5506C0.106842 9.95414 0.590578 9.46617 1.18709 9.47037ZM27.2911 19.2437C28.9241 20.4636 31.5246 19.4789 34.2817 16.9658C35.7014 15.668 36.9258 14.1919 37.736 13.1326L35.5494 28.9395C35.5494 29.9141 32.2891 30.7624 27.4616 31.2077V29.8148C30.1534 29.4489 31.8675 28.8964 31.8673 28.2784C31.8673 27.1767 26.4189 26.2836 19.7025 26.2836C12.9867 26.2836 7.53774 27.1767 7.53774 28.2784C7.53774 28.8965 9.25143 29.4489 11.9428 29.8148V31.2072C7.11219 30.7609 3.84943 29.9112 3.84943 28.9395L1.67579 13.1326C3.69748 15.8203 8.1309 20.6024 11.3629 19.64C15.0694 18.3811 18.6148 7.02578 19.7081 3.36677C20.4527 5.85443 23.7373 16.7873 27.2911 19.2437Z" fill="#FFD211"/>
<path fill-rule="evenodd" clip-rule="evenodd" d="M31.3894 7.55382C31.3894 8.15029 30.9056 8.63406 30.3091 8.63406C29.7118 8.63406 29.2289 8.15033 29.2289 7.55382C29.2289 6.95734 29.7126 6.47357 30.3091 6.47357C30.9056 6.47357 31.3894 6.9573 31.3894 7.55382ZM28.9339 18.5618C30.0319 18.5618 31.5816 17.7356 33.2159 16.3062C32.8356 15.7816 32.3111 15.0098 31.7803 14.0507C30.9902 12.6217 30.3933 11.1741 29.989 9.73881C29.3862 10.9932 28.6079 12.2295 27.6673 13.4297C26.9618 14.3224 26.2926 15.04 25.792 15.5284C26.799 17.2472 27.547 17.959 27.9752 18.2543C28.2646 18.4654 28.5662 18.5618 28.9339 18.5618ZM11.0164 18.4831C11.6734 18.2539 12.5724 17.3314 13.6215 15.5221C13.121 15.0336 12.4517 14.3219 11.7521 13.4293C10.8114 12.2292 10.0395 10.9928 9.4304 9.73837C9.03248 11.1737 8.42919 12.6208 7.63918 14.0502C7.10834 15.0093 6.58965 15.7812 6.20979 16.3058C7.72974 17.6389 9.26133 18.5614 10.4737 18.5614C10.6668 18.5614 10.8477 18.5374 11.0164 18.4831ZM10.1906 7.55379C10.1906 8.15027 9.70687 8.63404 9.11035 8.63404C8.51345 8.63404 8.03053 8.1503 8.0301 7.55379C8.0301 6.95731 8.51384 6.47355 9.11035 6.47355C9.70683 6.47355 10.1906 6.95728 10.1906 7.55379Z" fill="#FFAE11"/>
</g>
<path d="M6.50603 112.621V101.116H15.5963V112.621H13.7653V102.72H8.32085V112.621H6.50603Z" fill="#1D1D1D"/>
<path d="M22.9796 112.702C22.1479 112.702 21.3971 112.54 20.7273 112.216C20.0576 111.892 19.4796 111.454 18.9935 110.903C18.5074 110.341 18.1293 109.715 17.8593 109.024C17.6 108.321 17.4704 107.603 17.4704 106.868C17.4704 106.101 17.6108 105.372 17.8917 104.681C18.1725 103.979 18.5614 103.358 19.0583 102.818C19.5553 102.267 20.1386 101.834 20.8083 101.521C21.4889 101.197 22.2235 101.035 23.0121 101.035C23.833 101.035 24.5784 101.203 25.2482 101.537C25.9287 101.872 26.5067 102.321 26.982 102.882C27.4681 103.444 27.8408 104.071 28.1 104.762C28.3701 105.453 28.5051 106.161 28.5051 106.885C28.5051 107.652 28.3647 108.386 28.0838 109.088C27.8138 109.78 27.4303 110.401 26.9334 110.952C26.4364 111.492 25.8477 111.919 25.1671 112.232C24.4974 112.545 23.7682 112.702 22.9796 112.702ZM19.3176 106.868C19.3176 107.409 19.404 107.932 19.5769 108.44C19.7497 108.948 19.9928 109.402 20.306 109.801C20.6301 110.19 21.019 110.498 21.4727 110.725C21.9264 110.952 22.4341 111.065 22.9958 111.065C23.5792 111.065 24.0977 110.946 24.5514 110.709C25.0051 110.471 25.3832 110.152 25.6857 109.753C25.9989 109.342 26.2366 108.889 26.3986 108.392C26.5607 107.884 26.6417 107.376 26.6417 106.868C26.6417 106.328 26.5553 105.81 26.3824 105.313C26.2204 104.805 25.9773 104.357 25.6533 103.968C25.3292 103.568 24.9403 103.255 24.4866 103.028C24.0437 102.801 23.5468 102.688 22.9958 102.688C22.4125 102.688 21.894 102.807 21.4403 103.044C20.9866 103.282 20.6031 103.601 20.2898 104C19.9766 104.4 19.7335 104.848 19.5607 105.345C19.3986 105.842 19.3176 106.35 19.3176 106.868Z" fill="#1D1D1D"/>
<path d="M39.1675 112.702C38.3357 112.702 37.585 112.54 36.9152 112.216C36.2455 111.892 35.6675 111.454 35.1814 110.903C34.6953 110.341 34.3172 109.715 34.0472 109.024C33.7879 108.321 33.6583 107.603 33.6583 106.868C33.6583 106.101 33.7987 105.372 34.0796 104.681C34.3604 103.979 34.7493 103.358 35.2462 102.818C35.7432 102.267 36.3265 101.834 36.9962 101.521C37.6768 101.197 38.4114 101.035 39.1999 101.035C40.0209 101.035 40.7663 101.203 41.4361 101.537C42.1166 101.872 42.6945 102.321 43.1699 102.882C43.656 103.444 44.0287 104.071 44.2879 104.762C44.558 105.453 44.693 106.161 44.693 106.885C44.693 107.652 44.5526 108.386 44.2717 109.088C44.0016 109.78 43.6182 110.401 43.1212 110.952C42.6243 111.492 42.0356 111.919 41.355 112.232C40.6853 112.545 39.9561 112.702 39.1675 112.702ZM35.5055 106.868C35.5055 107.409 35.5919 107.932 35.7648 108.44C35.9376 108.948 36.1807 109.402 36.4939 109.801C36.818 110.19 37.2069 110.498 37.6606 110.725C38.1143 110.952 38.622 111.065 39.1837 111.065C39.7671 111.065 40.2856 110.946 40.7393 110.709C41.193 110.471 41.5711 110.152 41.8736 109.753C42.1868 109.342 42.4245 108.889 42.5865 108.392C42.7486 107.884 42.8296 107.376 42.8296 106.868C42.8296 106.328 42.7432 105.81 42.5703 105.313C42.4083 104.805 42.1652 104.357 41.8412 103.968C41.5171 103.568 41.1282 103.255 40.6745 103.028C40.2316 102.801 39.7347 102.688 39.1837 102.688C38.6004 102.688 38.0819 102.807 37.6282 103.044C37.1745 103.282 36.791 103.601 36.4777 104C36.1644 104.4 35.9214 104.848 35.7486 105.345C35.5865 105.842 35.5055 106.35 35.5055 106.868Z" fill="#1D1D1D"/>
<path d="M46.5881 112.621V101.116H55.6784V112.621H53.8473V102.72H48.4029V112.621H46.5881Z" fill="#1D1D1D"/>
<path d="M66.7237 102.72H62.8997V112.621H61.0686V102.72H57.2284V101.116H66.7237V102.72Z" fill="#1D1D1D"/>
<path d="M72.7301 112.702C71.8983 112.702 71.1476 112.54 70.4778 112.216C69.808 111.892 69.2301 111.454 68.744 110.903C68.2579 110.341 67.8798 109.715 67.6097 109.024C67.3505 108.321 67.2209 107.603 67.2209 106.868C67.2209 106.101 67.3613 105.372 67.6422 104.681C67.923 103.979 68.3119 103.358 68.8088 102.818C69.3057 102.267 69.8891 101.834 70.5588 101.521C71.2394 101.197 71.9739 101.035 72.7625 101.035C73.5835 101.035 74.3289 101.203 74.9986 101.537C75.6792 101.872 76.2571 102.321 76.7324 102.882C77.2186 103.444 77.5912 104.071 77.8505 104.762C78.1206 105.453 78.2556 106.161 78.2556 106.885C78.2556 107.652 78.1152 108.386 77.8343 109.088C77.5642 109.78 77.1807 110.401 76.6838 110.952C76.1869 111.492 75.5982 111.919 74.9176 112.232C74.2479 112.545 73.5187 112.702 72.7301 112.702ZM69.0681 106.868C69.0681 107.409 69.1545 107.932 69.3273 108.44C69.5002 108.948 69.7432 109.402 70.0565 109.801C70.3806 110.19 70.7695 110.498 71.2232 110.725C71.6769 110.952 72.1846 111.065 72.7463 111.065C73.3297 111.065 73.8482 110.946 74.3019 110.709C74.7556 110.471 75.1337 110.152 75.4361 109.753C75.7494 109.342 75.9871 108.889 76.1491 108.392C76.3111 107.884 76.3922 107.376 76.3922 106.868C76.3922 106.328 76.3057 105.81 76.1329 105.313C75.9709 104.805 75.7278 104.357 75.4037 103.968C75.0797 103.568 74.6908 103.255 74.2371 103.028C73.7942 102.801 73.2972 102.688 72.7463 102.688C72.163 102.688 71.6445 102.807 71.1908 103.044C70.7371 103.282 70.3536 103.601 70.0403 104C69.727 104.4 69.484 104.848 69.3111 105.345C69.1491 105.842 69.0681 106.35 69.0681 106.868Z" fill="#1D1D1D"/>
<path d="M89.1761 109.655C89.1761 110.271 89.0141 110.801 88.69 111.243C88.3767 111.686 87.9501 112.027 87.4099 112.264C86.8698 112.502 86.2757 112.621 85.6275 112.621H80.1345V101.116H86.065C86.6051 101.116 87.0696 101.262 87.4585 101.554C87.8582 101.834 88.1607 102.202 88.3659 102.655C88.582 103.098 88.69 103.563 88.69 104.049C88.69 104.611 88.5442 105.14 88.2525 105.637C87.9717 106.123 87.5666 106.485 87.0372 106.723C87.6962 106.917 88.2147 107.274 88.5928 107.792C88.9817 108.3 89.1761 108.921 89.1761 109.655ZM87.3127 109.315C87.3127 108.991 87.2425 108.699 87.1021 108.44C86.9724 108.17 86.7888 107.954 86.5511 107.792C86.3243 107.619 86.0542 107.533 85.7409 107.533H81.9493V111.049H85.6275C85.9516 111.049 86.2379 110.973 86.4863 110.822C86.7456 110.66 86.9454 110.449 87.0859 110.19C87.2371 109.92 87.3127 109.628 87.3127 109.315ZM81.9493 102.688V106.074H85.2872C85.5897 106.074 85.8598 106.004 86.0974 105.864C86.3351 105.713 86.5241 105.513 86.6646 105.264C86.805 105.005 86.8752 104.713 86.8752 104.389C86.8752 104.054 86.8104 103.763 86.6808 103.514C86.5511 103.255 86.3729 103.055 86.146 102.915C85.93 102.764 85.6761 102.688 85.3845 102.688H81.9493Z" fill="#1D1D1D"/>
<path d="M91.0688 112.621V101.116H92.8836V105.362H95.46C96.3026 105.362 97.0102 105.513 97.5827 105.815C98.166 106.107 98.6035 106.523 98.8952 107.063C99.1977 107.603 99.3489 108.24 99.3489 108.975C99.3489 109.666 99.2031 110.293 98.9114 110.855C98.6197 111.405 98.193 111.838 97.6313 112.151C97.0696 112.464 96.3836 112.621 95.5734 112.621H91.0688ZM92.8836 111.114H95.3142C95.8219 111.114 96.2378 111.017 96.5619 110.822C96.8859 110.628 97.1182 110.368 97.2586 110.044C97.4099 109.71 97.4855 109.353 97.4855 108.975C97.4855 108.608 97.4153 108.262 97.2748 107.938C97.1452 107.614 96.9184 107.355 96.5943 107.16C96.281 106.966 95.8489 106.868 95.298 106.868H92.8836V111.114ZM101.164 112.621V101.132H102.995V112.621H101.164Z" fill="#1D1D1D"/>
<path d="M115.237 112.621V104.422L111.851 110.644H110.781L107.378 104.422V112.621H105.564V101.116H107.508L111.316 108.149L115.124 101.116H117.068V112.621H115.237Z" fill="#1D1D1D"/>
<path d="M132.303 114.808V112.621H123.666V101.116H125.481V111.017H130.618V101.116H132.449V111.017H133.907V114.808H132.303Z" fill="#1D1D1D"/>
<path d="M143.647 111.017V112.621H135.756V101.116H143.501V102.72H137.57V105.993H142.707V107.5H137.57V111.017H143.647Z" fill="#1D1D1D"/>
<path d="M154.966 101.116V112.621H153.135V107.549H147.334V112.621H145.519V101.116H147.334V105.929H153.135V101.116H154.966Z" fill="#1D1D1D"/>
<path d="M160.883 101.116H162.6L167.073 112.621H165.161L163.945 109.493H159.505L158.306 112.621H156.378L160.883 101.116ZM163.589 108.149L161.742 103.109L159.83 108.149H163.589Z" fill="#1D1D1D"/>
<path d="M178.169 112.621V104.422L174.782 110.644H173.713L170.31 104.422V112.621H168.495V101.116H170.44L174.248 108.149L178.056 101.116H180V112.621H178.169Z" fill="#1D1D1D"/>
<defs>
<linearGradient id="paint0_linear_5_47" x1="93.253" y1="30.3345" x2="93.253" y2="55.2888" gradientUnits="userSpaceOnUse">
<stop stop-color="#FFAE11"/>
<stop offset="1" stop-color="#FFD211"/>
</linearGradient>
<linearGradient id="paint1_linear_5_47" x1="93.253" y1="30.3345" x2="93.253" y2="55.2888" gradientUnits="userSpaceOnUse">
<stop stop-color="#FFAE11"/>
<stop offset="1" stop-color="#FFD211"/>
</linearGradient>
<linearGradient id="paint2_linear_5_47" x1="93.253" y1="30.3345" x2="93.253" y2="55.2888" gradientUnits="userSpaceOnUse">
<stop stop-color="#FFAE11"/>
<stop offset="1" stop-color="#FFD211"/>
</linearGradient>
<linearGradient id="paint3_linear_5_47" x1="93.253" y1="30.3345" x2="93.253" y2="55.2888" gradientUnits="userSpaceOnUse">
<stop stop-color="#FFAE11"/>
<stop offset="1" stop-color="#FFD211"/>
</linearGradient>
<linearGradient id="paint4_linear_5_47" x1="93.253" y1="30.3345" x2="93.253" y2="55.2888" gradientUnits="userSpaceOnUse">
<stop stop-color="#FFAE11"/>
<stop offset="1" stop-color="#FFD211"/>
</linearGradient>
<linearGradient id="paint5_linear_5_47" x1="93.253" y1="30.3345" x2="93.253" y2="55.2888" gradientUnits="userSpaceOnUse">
<stop stop-color="#FFAE11"/>
<stop offset="1" stop-color="#FFD211"/>
</linearGradient>
<linearGradient id="paint6_linear_5_47" x1="93.253" y1="30.3345" x2="93.253" y2="55.2888" gradientUnits="userSpaceOnUse">
<stop stop-color="#FFAE11"/>
<stop offset="1" stop-color="#FFD211"/>
</linearGradient>
<clipPath id="clip0_5_47">
<rect width="39.3072" height="31.4458" fill="white" transform="translate(7.62939e-06 0.19173)"/>
</clipPath>
</defs>
</svg>
