<svg width="40" height="40" viewBox="0 0 40 40" fill="none" xmlns="http://www.w3.org/2000/svg">
<g clip-path="url(#clip0_406_1319)">
<path d="M15.0281 9.81131C14.7618 9.81131 14.5397 9.72244 14.3623 9.545C14.1848 9.36755 14.096 9.14552 14.096 8.87921C14.096 8.6129 14.1848 8.39085 14.3623 8.21342C14.7175 7.85822 15.339 7.85822 15.6496 8.21342C15.827 8.39086 15.9159 8.6129 15.9159 8.87921C15.9159 9.10124 15.827 9.36756 15.6496 9.545C15.5164 9.72244 15.2944 9.81131 15.0281 9.81131H15.0281Z" fill="#E3302C"/>
<path d="M38.3351 14.2508H34.7835V0.932441C34.7835 0.444087 34.384 0 33.8511 0H6.14894C5.66059 0 5.2165 0.399478 5.2165 0.932441V14.2508H1.66487C1.17652 14.2508 0.73243 14.6502 0.73243 15.1832V34.6724C0.73243 35.205 1.13191 35.6048 1.66487 35.6048H3.92891V39.0676C3.92891 39.5559 4.32838 40 4.86135 40C5.39399 40 5.79379 39.6005 5.79379 39.0676V35.6048H34.2062V39.0676C34.2062 39.5559 34.6057 40 35.1387 40C35.6713 40 36.0711 39.6005 36.0711 39.0676V35.6048H38.3351C38.8678 35.6048 39.2676 35.2053 39.2676 34.6724L39.2673 15.1832C39.223 14.6506 38.8235 14.2511 38.3351 14.2511L38.3351 14.2508ZM7.08146 1.86472H32.919V14.2508H29.3674C28.879 14.2511 28.4349 14.6506 28.4349 15.1832V19.7115H11.5651V15.1832C11.5651 14.6949 11.1656 14.2508 10.6326 14.2508H7.08099L7.08146 1.86472ZM28.4352 21.5315V26.2372H11.5653V21.5315H28.4352ZM37.4029 33.7399H2.59763V16.1153H9.70089V27.1695C9.70089 27.6579 10.1004 28.102 10.6333 28.102H29.3678C29.8561 28.102 30.3002 27.7025 30.3002 27.1695L30.2999 16.1153H37.4032L37.4029 33.7399Z" fill="#E3302C"/>
<path d="M24.9724 9.81131C24.7061 9.81131 24.4841 9.72244 24.3066 9.545C24.1292 9.36755 24.0403 9.14552 24.0403 8.87921C24.0403 8.6129 24.1292 8.39085 24.3066 8.21342C24.6618 7.85822 25.2833 7.85822 25.5939 8.21342C25.7713 8.39086 25.8602 8.6129 25.8602 8.87921C25.8602 9.10124 25.7713 9.36756 25.5939 9.545C25.4165 9.72244 25.1944 9.81131 24.9724 9.81131H24.9724Z" fill="#E3302C"/>
</g>
<defs>
<clipPath id="clip0_406_1319">
<rect width="40" height="40" fill="white"/>
</clipPath>
</defs>
</svg>
