<svg width="40" height="40" viewBox="0 0 40 40" fill="none" xmlns="http://www.w3.org/2000/svg">
<path d="M34.5974 18.5982C32.2958 12.7836 26.6021 8.62425 19.9797 8.62425C19.7777 8.62425 19.5758 8.66453 19.3335 8.66453C17.3145 7.93783 16.2647 5.67631 16.9915 3.6573C17.5568 2.12335 19.253 1.27522 20.7873 1.84054C21.9582 2.24446 22.5641 3.53652 22.1199 4.66709C21.8371 5.51523 20.9084 5.95941 20.0605 5.63629C19.6163 5.4749 19.1722 5.71713 19.0107 6.12077C18.8493 6.56497 19.0916 7.00914 19.4952 7.17059C21.1912 7.77618 23.0487 6.88779 23.6544 5.19188C24.3811 3.17286 23.3313 0.992471 21.3123 0.265481C18.9299 -0.58265 16.2648 0.6694 15.4166 3.0518C14.6493 5.15164 15.2955 7.41287 16.7895 8.90687C11.54 9.99721 7.25974 13.6716 5.36186 18.5578H5.32159C2.81808 19.3656 1.12218 21.6674 1.12218 24.292C1.12218 26.9166 2.85839 29.2587 5.36218 29.9857C7.66372 35.8408 13.3575 40 19.9799 40C26.6022 40 32.2958 35.8408 34.5975 30.0261H34.7187C37.1819 29.2185 38.8778 26.9572 38.8778 24.3324C38.8375 21.6675 37.1416 19.3657 34.5976 18.5984L34.5974 18.5982ZM2.77768 24.2919C2.77768 22.7979 3.54497 21.4653 4.75638 20.698C4.47358 21.8689 4.31218 23.0804 4.31218 24.2919C4.31218 25.5436 4.47358 26.7551 4.75638 27.8857C3.54461 27.1184 2.77768 25.7859 2.77768 24.2919ZM19.9797 38.3442C12.2267 38.3442 5.92734 32.045 5.92734 24.2919C5.92734 16.5388 12.2266 10.2395 19.9797 10.2395C27.7328 10.2395 34.032 16.5388 34.032 24.2919C34.032 32.045 27.7328 38.3442 19.9797 38.3442ZM35.2434 27.9261C35.5262 26.7552 35.6876 25.5437 35.6876 24.3323C35.6876 23.0805 35.5262 21.8691 35.2434 20.7384C36.4549 21.5057 37.2222 22.8383 37.2222 24.3323C37.1816 25.7857 36.4146 27.1183 35.2434 27.9261Z" fill="#E3302C"/>
<path d="M19.9797 24.8168C16.8703 24.8168 14.3266 27.3608 14.3266 30.4699C14.3266 33.5792 16.8706 36.123 19.9797 36.123C23.089 36.123 25.6328 33.5789 25.6328 30.4699C25.6328 27.3608 23.089 24.8168 19.9797 24.8168ZM19.9797 34.508C17.7587 34.508 15.9417 32.691 15.9417 30.47C15.9417 28.249 17.7587 26.432 19.9797 26.432C22.2007 26.432 24.0177 28.249 24.0177 30.47C24.0177 32.691 22.2007 34.508 19.9797 34.508Z" fill="#E3302C"/>
<path d="M19.9797 27.7645C18.4857 27.7645 17.2742 28.976 17.2742 30.47C17.2742 31.964 18.4857 33.1755 19.9797 33.1755C21.4737 33.1755 22.6852 31.964 22.6852 30.47C22.6852 28.976 21.4737 27.7645 19.9797 27.7645ZM19.9797 31.5603C19.3741 31.5603 18.8894 31.0759 18.8894 30.47C18.8894 29.8644 19.3738 29.3797 19.9797 29.3797C20.5853 29.3797 21.07 29.8641 21.07 30.47C21.07 31.0759 20.5853 31.5603 19.9797 31.5603Z" fill="#E3302C"/>
<path d="M15.7801 22.717C15.7801 21.8688 15.0937 21.1824 14.2456 21.1824C13.3975 21.1824 12.7111 21.8689 12.7111 22.717C12.7111 23.5651 13.3975 24.2515 14.2456 24.2515C15.0934 24.2515 15.7801 23.5245 15.7801 22.717Z" fill="#E3302C"/>
<path d="M25.7137 21.1825C24.8656 21.1825 24.1792 21.8689 24.1792 22.717C24.1792 23.5651 24.8656 24.2515 25.7137 24.2515C26.5618 24.2515 27.2482 23.5651 27.2482 22.717C27.2077 21.8692 26.5212 21.1825 25.7137 21.1825Z" fill="#E3302C"/>
</svg>
