<svg width="40" height="40" viewBox="0 0 40 40" fill="none" xmlns="http://www.w3.org/2000/svg">
<path d="M38.9999 6.75018H0.999954C0.447848 6.75018 4.57764e-05 7.19765 4.57764e-05 7.75009C4.57764e-05 8.3022 0.447866 8.75 0.999954 8.75H2.75013V32.2499C2.75013 32.8024 3.1976 33.2499 3.75004 33.2499C4.30247 33.2499 4.74995 32.8024 4.74995 32.2499V13.75H22.2499V32.2499C22.2499 32.8024 22.6977 33.2499 23.2498 33.2499C23.8023 33.2499 24.2501 32.8024 24.2501 32.2499V29.2498H35.2501V32.2499C35.2501 32.8024 35.6975 33.2499 36.25 33.2499C36.8024 33.2499 37.2499 32.8024 37.2499 32.2499V8.75H39C39.5522 8.75 40 8.30218 40 7.75009C40 7.19764 39.5521 6.75018 39 6.75018H38.9999ZM22.2499 11.7502H4.74995V8.75H22.2499V11.7502ZM35.2499 27.2501H24.2499V18.7502H35.2499V27.2501ZM35.2499 16.7502H24.2499V8.75H35.2499V16.7502Z" fill="#E3302C"/>
<path d="M28.4999 13.7502H31.5001C32.0522 13.7502 32.5 13.3024 32.5 12.7503C32.5 12.1978 32.0522 11.7504 31.5001 11.7504H28.4999C27.9478 11.7504 27.5 12.1978 27.5 12.7503C27.5 13.3024 27.9478 13.7502 28.4999 13.7502Z" fill="#E3302C"/>
<path d="M28.4999 23.7501H31.5001C32.0522 23.7501 32.5 23.3023 32.5 22.7502C32.5 22.1978 32.0522 21.7503 31.5001 21.7503H28.4999C27.9478 21.7503 27.5 22.1978 27.5 22.7502C27.5 23.3023 27.9478 23.7501 28.4999 23.7501Z" fill="#E3302C"/>
</svg>
