<svg width="40" height="40" viewBox="0 0 40 40" fill="none" xmlns="http://www.w3.org/2000/svg">
<g clip-path="url(#clip0_406_1274)">
<path d="M19.6798 39.9999C18.2002 39.9999 16.992 38.8135 16.9583 37.3421L12.4705 37.7592C12.2559 38.9874 11.1803 39.9261 9.89155 39.9261C8.44873 39.9261 7.27242 38.7515 7.27242 37.307C7.27242 35.8624 8.447 34.6879 9.89155 34.6879C10.1395 34.6879 10.3808 34.7229 10.6089 34.7883L17.421 33.4008V27.4183H11.8408C10.3896 27.4183 9.16305 26.4313 8.80252 25.0923H6.8368C6.37419 25.0923 5.99883 24.7169 5.99883 24.2543L5.99911 15.2326C5.99911 14.77 6.37447 14.3946 6.83708 14.3946H11.5092L12.4692 0.779368C12.5009 0.340323 12.8647 0 13.3055 0H27.2511C27.6952 0 28.0605 0.346744 28.0874 0.789135L28.8749 14.3943H33.1632C33.6258 14.3943 34.0012 14.7697 34.0012 15.2323V24.254C34.0012 24.7167 33.6258 25.092 33.1632 25.092H31.184C30.8187 26.4361 29.597 27.418 28.1475 27.418H21.9672V33.3921L29.2028 34.8686C29.4993 34.753 29.8194 34.6893 30.1563 34.6893C31.5992 34.6893 32.7755 35.8639 32.7755 37.3084C32.7755 38.7529 31.6009 39.9276 30.1563 39.9276C28.886 39.9276 27.8237 39.0175 27.5874 37.8163L22.3927 37.3388C22.3641 38.8102 21.1578 40 19.6796 40L19.6798 39.9999ZM18.0143 35.564C18.2926 35.564 18.5538 35.7031 18.7114 35.9377C18.8823 36.1924 18.8991 36.5226 18.7549 36.7939C18.6744 36.9431 18.6343 37.1106 18.6343 37.2798C18.6343 37.8563 19.1036 38.3236 19.6799 38.3236C20.253 38.3236 20.7187 37.856 20.7187 37.2798C20.7187 37.1123 20.6769 36.9428 20.5947 36.7871C20.4505 36.5156 20.469 36.1874 20.6382 35.9309C20.8107 35.6762 21.1025 35.5404 21.4125 35.5623L26.5351 36.0333L20.9633 34.8972C20.5728 34.8167 20.2931 34.4733 20.2931 34.076V30.1731H19.0983V34.0844C19.0983 34.4816 18.8183 34.825 18.4281 34.9056L12.8728 36.0384L17.9385 35.5673C17.9637 35.5656 17.9873 35.564 18.0142 35.564L18.0143 35.564ZM30.158 36.3652C29.6367 36.3652 29.2145 36.7874 29.2145 37.3087C29.2145 37.8299 29.6367 38.2521 30.158 38.2521C30.6792 38.2521 31.1014 37.8299 31.1014 37.3087C31.1014 36.7874 30.6792 36.3652 30.158 36.3652ZM9.89169 36.3652C9.37045 36.3652 8.94822 36.7874 8.94822 37.3087C8.94822 37.8299 9.37043 38.2521 9.89169 38.2521C10.4129 38.2521 10.8352 37.8299 10.8352 37.3087C10.8352 36.7874 10.413 36.3652 9.89169 36.3652ZM19.0966 28.4975H20.2914V27.4166H19.0966V28.4975ZM21.1294 25.7427H28.1474C28.9584 25.7427 29.6188 25.084 29.6188 24.2747C29.6188 23.812 29.9941 23.4168 30.4567 23.4168H32.3234V16.0705H28.0837C27.6396 16.0705 27.2743 15.7238 27.2473 15.2814L26.4599 1.67623L14.0864 1.67595L13.1261 15.2912C13.0944 15.7302 12.7308 16.0705 12.29 16.0705H7.67489V23.4168H9.53152C9.99413 23.4168 10.3695 23.7922 10.3695 24.2548C10.3695 25.0843 11.0296 25.7428 11.8409 25.7428L21.1294 25.7427Z" fill="#E3302C"/>
<path d="M24.1174 7.17051H16.0904C15.6278 7.17051 15.2524 6.79515 15.2524 6.33254C15.2524 5.86993 15.6278 5.49457 16.0904 5.49457H24.1174C24.58 5.49457 24.9554 5.86993 24.9554 6.33254C24.9554 6.79515 24.58 7.17051 24.1174 7.17051Z" fill="#E3302C"/>
<path d="M24.1146 11.4121H16.0875C15.6249 11.4121 15.2495 11.0367 15.2495 10.5741C15.2495 10.1115 15.6249 9.73613 16.0875 9.73613H24.1146C24.5772 9.73613 24.9525 10.1115 24.9525 10.5741C24.9523 11.0367 24.5769 11.4121 24.1146 11.4121Z" fill="#E3302C"/>
<path d="M24.1174 15.4971H16.0904C15.6278 15.4971 15.2524 15.1217 15.2524 14.6591C15.2524 14.1965 15.6278 13.8211 16.0904 13.8211H24.1174C24.58 13.8211 24.9554 14.1965 24.9554 14.6591C24.9554 15.1217 24.58 15.4971 24.1174 15.4971Z" fill="#E3302C"/>
<path d="M9.53196 25.1128C9.45145 25.1128 9.36784 25.101 9.28734 25.0777C8.84324 24.9419 8.59525 24.4746 8.72935 24.0321L11.4873 14.9895C11.6231 14.5471 12.0938 14.2991 12.5329 14.4315C12.977 14.5673 13.225 15.0347 13.0909 15.4771L10.3326 24.5197C10.2241 24.8799 9.8922 25.1131 9.53202 25.1131L9.53196 25.1128Z" fill="#E3302C"/>
<path d="M30.4583 25.0927C30.0863 25.0927 29.746 24.8447 29.6489 24.4676L27.2761 15.4459C27.1588 14.9984 27.4253 14.5408 27.8728 14.4236C28.3152 14.303 28.7795 14.5729 28.895 15.0203L31.2678 24.0421C31.3851 24.4895 31.1186 24.9471 30.6711 25.0643C30.6004 25.0842 30.5283 25.0927 30.4582 25.0927L30.4583 25.0927Z" fill="#E3302C"/>
</g>
<defs>
<clipPath id="clip0_406_1274">
<rect width="40" height="40" fill="white"/>
</clipPath>
</defs>
</svg>
