<svg width="40" height="40" viewBox="0 0 40 40" fill="none" xmlns="http://www.w3.org/2000/svg">
<g clip-path="url(#clip0_406_1288)">
<path fill-rule="evenodd" clip-rule="evenodd" d="M3.80889 2.17856C2.76038 2.17856 1.98642 2.94525 1.98642 3.87329V35.1031C1.98642 35.4506 2.30969 35.7739 2.65722 35.7739H37.3428C37.6903 35.7739 38.0136 35.4506 38.0136 35.1031V3.87329C38.0136 2.91634 37.2093 2.17856 36.3189 2.17856H3.80889ZM1.90735e-06 3.87329C1.90735e-06 1.72955 1.78582 0.192139 3.80889 0.192139H36.3189C38.2445 0.192139 40 1.75843 40 3.87329V35.1031C40 36.5477 38.7874 37.7603 37.3428 37.7603H2.65722C1.21263 37.7603 1.90735e-06 36.5477 1.90735e-06 35.1031V3.87329Z" fill="#E3302C"/>
<path fill-rule="evenodd" clip-rule="evenodd" d="M13.8233 36.7669V1.18536H15.8097V36.7669H13.8233Z" fill="#E3302C"/>
<path fill-rule="evenodd" clip-rule="evenodd" d="M27.1343 36.7669V1.18536H29.1207V36.7669H27.1343Z" fill="#E3302C"/>
<path fill-rule="evenodd" clip-rule="evenodd" d="M39.0069 13.5697H28.1275V11.5833H39.0069V13.5697Z" fill="#E3302C"/>
<path fill-rule="evenodd" clip-rule="evenodd" d="M39.0069 24.833H28.1275V22.8466H39.0069V24.833Z" fill="#E3302C"/>
<path fill-rule="evenodd" clip-rule="evenodd" d="M39.0069 30.9765H28.1275V28.9901H39.0069V30.9765Z" fill="#E3302C"/>
<path fill-rule="evenodd" clip-rule="evenodd" d="M31.486 27.1675C31.486 26.619 31.9307 26.1743 32.4792 26.1743H34.9108C35.4593 26.1743 35.904 26.619 35.904 27.1675C35.904 27.7161 35.4593 28.1607 34.9108 28.1607H32.4792C31.9307 28.1607 31.486 27.7161 31.486 27.1675Z" fill="#E3302C"/>
<path fill-rule="evenodd" clip-rule="evenodd" d="M31.486 33.6951C31.486 33.1465 31.9307 32.7018 32.4792 32.7018H34.9108C35.4593 32.7018 35.904 33.1465 35.904 33.6951C35.904 34.2436 35.4593 34.6883 34.9108 34.6883H32.4792C31.9307 34.6883 31.486 34.2436 31.486 33.6951Z" fill="#E3302C"/>
<path fill-rule="evenodd" clip-rule="evenodd" d="M18.7842 15.935C19.3327 15.935 19.7774 16.3797 19.7774 16.9282V19.488C19.7774 20.0366 19.3327 20.4812 18.7842 20.4812C18.2357 20.4812 17.791 20.0366 17.791 19.488V16.9282C17.791 16.3797 18.2357 15.935 18.7842 15.935Z" fill="#E3302C"/>
<path fill-rule="evenodd" clip-rule="evenodd" d="M12.1287 15.935C12.6772 15.935 13.1219 16.3797 13.1219 16.9282V19.488C13.1219 20.0366 12.6772 20.4812 12.1287 20.4812C11.5801 20.4812 11.1355 20.0366 11.1355 19.488V16.9282C11.1355 16.3797 11.5801 15.935 12.1287 15.935Z" fill="#E3302C"/>
<path fill-rule="evenodd" clip-rule="evenodd" d="M4.19323 35.7736C4.74177 35.7736 5.18644 36.2183 5.18644 36.7668V38.8147C5.18644 39.3632 4.74177 39.8079 4.19323 39.8079C3.6447 39.8079 3.20002 39.3632 3.20002 38.8147V36.7668C3.20002 36.2183 3.6447 35.7736 4.19323 35.7736Z" fill="#E3302C"/>
<path fill-rule="evenodd" clip-rule="evenodd" d="M36.9589 35.7736C37.5075 35.7736 37.9521 36.2183 37.9521 36.7668V38.8147C37.9521 39.3632 37.5075 39.8079 36.9589 39.8079C36.4104 39.8079 35.9657 39.3632 35.9657 38.8147V36.7668C35.9657 36.2183 36.4104 35.7736 36.9589 35.7736Z" fill="#E3302C"/>
</g>
<defs>
<clipPath id="clip0_406_1288">
<rect width="40" height="40" fill="white"/>
</clipPath>
</defs>
</svg>
