<svg width="153" height="22" viewBox="0 0 153 22" fill="none" xmlns="http://www.w3.org/2000/svg">
<g clip-path="url(#clip0_49_2167)">
<path d="M21.704 21.7692H17.6992L20.2041 6.28076H24.2087L21.704 21.7692Z" fill="#00579F"/>
<path d="M36.2223 6.6594C35.4324 6.34602 34.1795 6 32.6303 6C28.6755 6 25.8905 8.10895 25.8734 11.1241C25.8405 13.3487 27.8673 14.5843 29.3833 15.326C30.9327 16.084 31.4594 16.5787 31.4594 17.2543C31.4436 18.2919 30.2073 18.7702 29.0543 18.7702C27.4554 18.7702 26.5987 18.5236 25.2967 17.9464L24.7694 17.6989L24.209 21.1757C25.1483 21.6036 26.8788 21.9834 28.6755 22C32.8776 22 35.6133 19.9237 35.6457 16.7105C35.6617 14.9474 34.5915 13.5964 32.2841 12.4924C30.8834 11.7837 30.0256 11.3059 30.0256 10.5808C30.042 9.9216 30.7511 9.24643 32.3323 9.24643C33.6342 9.21336 34.5908 9.52631 35.3155 9.83948L35.6777 10.0039L36.2223 6.6594Z" fill="#00579F"/>
<path d="M41.5447 16.2822C41.8746 15.3924 43.1437 11.9487 43.1437 11.9487C43.127 11.9817 43.4728 11.0424 43.6706 10.4658L43.9504 11.8004C43.9504 11.8004 44.7088 15.5078 44.8735 16.2822C44.2476 16.2822 42.3358 16.2822 41.5447 16.2822ZM46.4882 6.28076H43.3905C42.4352 6.28076 41.7094 6.56064 41.2973 7.56584L35.3486 21.769H39.5508C39.5508 21.769 40.2426 19.8573 40.3913 19.4456C40.8523 19.4456 44.9401 19.4456 45.5331 19.4456C45.6481 19.9894 46.011 21.769 46.011 21.769H49.7191L46.4882 6.28076Z" fill="#00579F"/>
<path d="M14.3543 6.28076L10.4323 16.8424L10.0037 14.7004C9.27862 12.2288 7.00455 9.5434 4.4668 8.20816L8.05924 21.7528H12.2942L18.5891 6.28076H14.3543Z" fill="#00579F"/>
<path d="M6.79053 6.28076H0.347168L0.28125 6.59371C5.30748 7.87901 8.63625 10.9772 10.0039 14.701L8.60318 7.58271C8.37257 6.59349 7.66389 6.31339 6.79053 6.28076Z" fill="#FAA61A"/>
</g>
<g clip-path="url(#clip1_49_2167)">
<path d="M76.5 7.71045H69.5V20.2896H76.5V7.71045Z" fill="#FF5F00"/>
<path d="M69.9449 14C69.9438 12.7885 70.2183 11.5927 70.7477 10.503C71.277 9.41332 72.0474 8.45836 73.0004 7.7104C71.8202 6.78277 70.4029 6.20588 68.9104 6.04569C67.4178 5.8855 65.9104 6.14845 64.5602 6.80451C63.2101 7.46056 62.0718 8.48325 61.2754 9.75567C60.479 11.0281 60.0566 12.4989 60.0566 14C60.0566 15.5011 60.479 16.9719 61.2754 18.2443C62.0718 19.5167 63.2101 20.5394 64.5602 21.1955C65.9104 21.8516 67.4178 22.1145 68.9104 21.9543C70.4029 21.7941 71.8202 21.2172 73.0004 20.2896C72.0474 19.5416 71.2771 18.5867 70.7477 17.497C70.2183 16.4073 69.9438 15.2115 69.9449 14Z" fill="#EB001B"/>
<path d="M85.9434 14C85.9434 15.5011 85.5211 16.9719 84.7248 18.2443C83.9284 19.5167 82.7902 20.5394 81.44 21.1955C80.0899 21.8515 78.5825 22.1145 77.09 21.9543C75.5975 21.7941 74.1801 21.2172 73 20.2896C73.9522 19.5409 74.7219 18.5858 75.2512 17.4963C75.7805 16.4067 76.0555 15.2113 76.0555 14C76.0555 12.7887 75.7805 11.5933 75.2512 10.5037C74.7219 9.41423 73.9522 8.45911 73 7.7104C74.1801 6.78276 75.5975 6.20588 77.09 6.04569C78.5825 5.8855 80.0899 6.14846 81.44 6.80452C82.7902 7.46059 83.9284 8.48328 84.7248 9.75569C85.5211 11.0281 85.9434 12.4989 85.9434 14Z" fill="#F79E1B"/>
</g>
<g clip-path="url(#clip2_49_2167)">
<path fill-rule="evenodd" clip-rule="evenodd" d="M111.47 6V6.00699C111.463 6.00699 109.262 6 108.675 8.10306C108.137 10.0314 106.621 15.3555 106.579 15.5022H106.16C106.16 15.5022 104.609 10.0594 104.064 8.09607C103.477 5.99301 101.269 6 101.269 6H96.2383V22H101.269V12.4978H101.478H101.688L104.623 22H108.116L111.051 12.5048H111.47V22H116.5V6H111.47Z" fill="#4DB45E"/>
<path fill-rule="evenodd" clip-rule="evenodd" d="M129.845 6C129.845 6 128.371 6.13275 127.679 7.67686L124.116 15.5022H123.697V6H118.666V22H123.417C123.417 22 124.961 21.8603 125.653 20.3231L129.146 12.4978H129.566V22H134.596V6H129.845Z" fill="#4DB45E"/>
<path fill-rule="evenodd" clip-rule="evenodd" d="M136.832 13.2664V22H141.863V16.8995H147.312C149.688 16.8995 151.7 15.3834 152.448 13.2664H136.832Z" fill="#4DB45E"/>
<path fill-rule="evenodd" clip-rule="evenodd" d="M147.313 6H136.127C136.686 9.04629 138.971 11.4917 141.926 12.2882C142.597 12.4699 143.302 12.5677 144.029 12.5677H152.651C152.728 12.2044 152.763 11.8341 152.763 11.4498C152.763 8.43843 150.324 6 147.313 6Z" fill="url(#paint0_linear_49_2167)"/>
</g>
<defs>
<linearGradient id="paint0_linear_49_2167" x1="136.128" y1="9.28384" x2="152.763" y2="9.28384" gradientUnits="userSpaceOnUse">
<stop offset="0.3" stop-color="#00B4E6"/>
<stop offset="1" stop-color="#088CCB"/>
</linearGradient>
<clipPath id="clip0_49_2167">
<rect width="50" height="16" fill="white" transform="translate(0 6)"/>
</clipPath>
<clipPath id="clip1_49_2167">
<rect width="26" height="16" fill="white" transform="translate(60 6)"/>
</clipPath>
<clipPath id="clip2_49_2167">
<rect width="57" height="16" fill="white" transform="translate(96 6)"/>
</clipPath>
</defs>
</svg>
